<?xml version="1.0" encoding="UTF-8" standalone="no"?>
<!-- Created with Inkscape (http://www.inkscape.org/) -->

<svg
   version="1.1"
   id="svg1499"
   width="333.26166"
   height="499.28839"
   sodipodi:docname="bg.svg"
   inkscape:version="1.1.2 (0a00cf5339, 2022-02-04, custom)"
   xmlns:inkscape="http://www.inkscape.org/namespaces/inkscape"
   xmlns:sodipodi="http://sodipodi.sourceforge.net/DTD/sodipodi-0.dtd"
   xmlns="http://www.w3.org/2000/svg"
   xmlns:svg="http://www.w3.org/2000/svg">
  <defs
     id="defs1503" />
  <sodipodi:namedview
     id="namedview1501"
     pagecolor="#ffffff"
     bordercolor="#666666"
     borderopacity="1.0"
     inkscape:pageshadow="2"
     inkscape:pageopacity="0.0"
     inkscape:pagecheckerboard="0"
     showgrid="false"
     inkscape:zoom="1.1576476"
     inkscape:cx="166.28549"
     inkscape:cy="249.6442"
     inkscape:window-width="1366"
     inkscape:window-height="768"
     inkscape:window-x="-2"
     inkscape:window-y="-2"
     inkscape:window-maximized="1"
     inkscape:current-layer="svg1499" />
  <inkscape:clipboard
     style="font-variation-settings:normal;opacity:1;vector-effect:none;fill:#ffffff;fill-opacity:1;stroke-width:0.99999874;stroke-linecap:butt;stroke-linejoin:miter;stroke-miterlimit:4;stroke-dasharray:none;stroke-dashoffset:0;stroke-opacity:1;-inkscape-stroke:none;stop-color:#000000;stop-opacity:1"
     min="-2542.0148,15894.163"
     max="-2208.7532,16393.452"
     geom-min="-2542.0148,15894.163"
     geom-max="-2208.7532,16393.452" />
  <g
     id="g1505"
     transform="matrix(3.7795275,0,0,3.7795275,2542.0148,-15894.163)"
     style="fill:#f9f9f9">
    <path
       id="path1320"
       style="fill:#f9f9f9;stroke-width:0.264583"
       d="m -633.55978,4205.3321 c -0.42283,0.021 -1.02952,0.271 -1.26037,0.6223 -0.21511,0.3273 -1.83076,1.841 -3.58997,3.3637 -4.04837,3.5039 -4.89522,4.6008 -5.72987,7.4181 l -0.35296,1.1906 0.13798,-1.1488 c 0.15375,-1.2806 0.83236,-2.7583 1.79523,-3.9092 1.22333,-1.4623 2.53595,-3.7444 3.07631,-5.3485 0.67156,-1.9934 0.67363,-2.1612 0.0253,-2.1612 -0.38656,0 -0.59643,0.2866 -0.82166,1.1229 -0.43178,1.6034 -1.15957,2.9417 -2.92283,5.3745 -0.84979,1.1724 -1.71585,2.6165 -1.92495,3.2091 -0.60357,1.7106 -0.7997,3.9447 -0.42529,4.8488 0.7067,1.706 1.57567,0.7268 2.53886,-2.8604 0.62532,-2.3289 1.52104,-3.5343 4.65553,-6.2638 2.85104,-2.4823 5.23999,-4.8622 5.23999,-5.2207 0,-0.1797 -0.18761,-0.2498 -0.44132,-0.2374 z m 31.13505,0.01 c -0.59293,-0.025 -1.68095,0.1955 -2.28925,0.5715 -1.76861,1.093 -1.85706,2.3069 -0.33798,4.6384 0.75631,1.1607 1.13676,2.0804 1.27177,3.0752 0.23776,1.7521 0.44733,2.0543 3.24268,4.6697 4.78121,4.4733 7.4363,9.2189 8.24757,14.7407 0.4745,3.2293 0.93713,4.2355 2.10322,4.5723 1.18441,0.3421 1.15451,0.3434 2.25103,-0.1149 1.96651,-0.8215 3.50057,-1.9878 3.50057,-2.6606 0,-0.3487 -0.0437,-0.6337 -0.0972,-0.6337 -0.0535,0 -0.8962,0.5358 -1.87275,1.1906 -1.22414,0.821 -2.0512,1.1907 -2.66237,1.1907 -1.48164,0 -1.75479,-0.4924 -2.12441,-3.8272 -0.24834,-2.2408 -1.05249,-4.6842 -2.39726,-7.2853 -1.56133,-3.0197 -3.3673,-5.3586 -6.13659,-7.9468 -2.58355,-2.4146 -2.94301,-2.922 -2.9564,-4.1714 -0.0102,-0.9517 -0.45654,-1.951 -1.65158,-3.6978 -1.04347,-1.5254 -0.90689,-2.1463 0.6568,-2.9896 0.69485,-0.3746 1.40306,-0.8212 1.57406,-0.9921 0.21135,-0.2114 0.0338,-0.3149 -0.32195,-0.3297 z m -56.89936,0.018 c -0.28424,0 -0.51728,0.048 -0.51728,0.1058 0,0.058 0.40719,1.16 0.90485,2.4485 1.39398,3.6097 1.82245,6.1793 1.68518,10.111 -0.16394,4.6959 -0.53806,5.4621 -3.91295,8.0172 -2.11309,1.5999 -2.92457,2.6477 -3.93618,5.0803 -0.958,2.3037 -1.45873,4.7519 -2.17093,10.6174 -1.11787,9.2065 -0.89538,18.6082 0.56689,23.9665 1.79666,6.5839 5.83653,13.548 10.67427,18.3999 3.70727,3.7179 6.07018,4.8075 13.45915,6.2032 3.04326,0.5749 4.94834,1.2419 5.83218,2.0418 0.72874,0.6596 1.1802,1.6446 1.91513,4.1806 1.14967,3.9672 1.92932,5.1184 5.52937,8.1638 1.29866,1.0988 1.72826,1.7004 2.68616,3.7642 0.82793,1.7838 1.54159,2.8649 2.60654,3.947 0.80666,0.8197 1.46659,1.6968 1.46659,1.9492 0,1.3976 -3.63207,2.6879 -10.05417,3.573 -8.5245,1.1747 -12.212,2.0058 -14.90348,3.3583 -2.36725,1.1899 -3.03326,1.7256 -3.65196,2.9385 -0.96697,1.8955 -0.4518,3.3896 2.42051,7.0244 1.69278,2.1421 1.71173,2.7387 0.11729,3.6957 -0.66071,0.3966 -1.82157,1.1057 -2.57968,1.5753 l -1.37872,0.8493 1.01235,0.011 c 1.34546,0.01 4.51053,-1.8163 5.08754,-2.9321 0.58449,-1.1303 0.21209,-2.0455 -1.87328,-4.6029 -2.03927,-2.5011 -2.46777,-3.6775 -1.82933,-5.0229 0.50438,-1.0631 2.20837,-2.2714 4.32221,-3.0654 2.79519,-1.0504 5.8111,-1.6571 13.72473,-2.7607 6.30611,-0.8792 9.74296,-2.1498 10.59471,-3.9172 0.47908,-0.9937 0.26614,-1.4642 -1.47846,-3.2633 -0.83291,-0.8589 -1.65505,-1.8569 -1.82677,-2.2172 -0.17171,-0.3607 -0.68209,-1.4555 -1.13429,-2.4337 -0.64106,-1.3867 -1.2105,-2.1151 -2.58485,-3.3073 -3.63863,-3.1562 -4.25368,-4.0984 -5.38726,-8.2476 -1.09194,-3.9962 -2.43512,-5.1593 -7.01974,-6.0785 -8.95218,-1.7949 -10.84196,-2.6239 -14.44408,-6.336 -2.84512,-2.9321 -6.28912,-7.8697 -7.89874,-11.3239 -1.13879,-2.4439 -2.47496,-6.6222 -2.867,-8.9659 -0.57909,-3.4618 -0.88127,-8.3521 -0.73588,-11.9063 0.21383,-5.2268 1.15522,-13.2855 1.91563,-16.3975 1.08345,-4.4339 1.5113,-5.0705 5.95882,-8.863 2.53373,-2.1606 3.46908,-5.7428 2.89388,-11.085 -0.45427,-4.2193 -2.19565,-9.2951 -3.18895,-9.2951 z m 2.10995,0 c -0.64159,0 -0.68802,0.952 -0.0884,1.8082 0.31602,0.4508 0.63167,0.5828 1.25367,0.522 0.66813,-0.065 0.95237,-0.3019 1.44952,-1.2057 l 0.61857,-1.1245 h -0.63664 c -0.40978,0 -0.7638,0.2379 -0.99375,0.6676 -0.41497,0.7754 -0.8863,0.7321 -1.00769,-0.093 -0.0533,-0.3622 -0.27342,-0.5747 -0.59531,-0.5747 z m 70.11096,0 0.71625,1.2568 c 0.3941,0.6911 0.96488,1.5359 1.26812,1.8769 l 0.55139,0.6202 0.0827,-0.6771 c 0.12803,-1.0466 -1.1724,-3.0768 -1.97094,-3.0768 z m -81.53765,5e-4 c -0.42775,0 -0.816,0.3567 -1.3689,1.2568 -2.68735,4.3749 -2.53289,4.0055 -2.5177,6.0037 l 0.0145,1.8677 0.47027,-1.4552 c 0.57751,-1.7862 1.27344,-3.1552 2.8143,-5.5372 0.6518,-1.0076 1.18493,-1.8998 1.18493,-1.9839 0,-0.084 -0.26889,-0.1519 -0.59737,-0.1519 z m 2.74142,0 c -0.98451,0 -3.72668,5.2107 -4.38991,8.3416 -0.58859,2.7789 -0.4998,5.1501 0.31419,8.3949 0.65789,2.6223 0.68805,2.971 0.38656,4.4307 -0.17997,0.8713 -0.91816,2.8935 -1.64023,4.4937 -1.13615,2.5183 -1.31075,3.1329 -1.29966,4.5657 l 0.0129,1.6557 0.74414,-1.9843 c 0.40944,-1.0915 1.22679,-3.056 1.81591,-4.3657 1.84412,-4.0997 2.05912,-5.8795 1.07125,-8.8635 -0.44337,-1.3393 -0.57002,-2.3638 -0.57103,-4.6302 -0.002,-3.5669 0.71536,-6.0336 2.73058,-9.3866 0.72972,-1.2142 1.32705,-2.3075 1.32705,-2.4297 0,-0.1223 -0.2259,-0.2223 -0.50179,-0.2223 z m 4.15791,0 c -0.26448,0 -0.48112,0.1395 -0.48112,0.3096 0,0.1701 0.55025,2.3315 1.22216,4.8032 1.10564,4.0677 1.20941,4.6975 1.095,6.6358 -0.19047,3.2276 -0.82893,4.5699 -3.78891,7.9629 -1.64811,1.8891 -2.85281,3.5621 -3.43339,4.7681 -1.85169,3.8467 -2.99884,10.9558 -3.56359,22.0871 -0.36912,7.2753 -0.62947,9.5893 -1.30432,11.5925 -0.30012,0.8911 -0.54033,2.1299 -0.53433,2.7529 l 0.0109,1.1327 0.5116,-0.926 c 1.53741,-2.784 2.04764,-5.9857 2.50889,-15.7427 0.22502,-4.7601 0.8881,-11.0361 1.48984,-14.1058 1.00145,-5.108 2.02927,-7.3062 4.95059,-10.5836 3.16611,-3.552 3.75653,-4.6283 4.26228,-7.7686 0.33964,-2.1088 0.0677,-3.9024 -1.3684,-9.0155 -0.89694,-3.1935 -1.18367,-3.9026 -1.57715,-3.9026 z m 10.42572,0 c -0.62246,0 -0.92866,0.2212 -1.49966,1.0843 -1.25026,1.8891 -1.50897,3.0284 -1.74511,7.6822 -0.40053,7.893 -1.40711,10.573 -5.40277,14.3846 -1.90778,1.82 -2.27687,2.318 -2.63551,3.5539 -0.54896,1.8915 -0.52658,2.4532 0.13126,3.2895 0.95996,1.2205 1.97236,0.8689 4.86843,-1.6883 2.12305,-1.8746 2.96633,-2.2003 5.73456,-2.2143 2.1613,-0.011 2.41059,0.049 4.50101,1.0848 3.8164,1.891 6.44456,4.8982 7.62743,8.7265 0.60254,1.95 1.15684,5.5793 1.7136,11.2205 0.22413,2.2711 0.54243,4.5333 0.70745,5.027 0.39425,1.1801 1.466,2.3098 2.46703,2.6012 1.09336,0.3177 1.06952,0.3177 1.911,0 2.57252,-0.9721 4.08366,-4.9261 4.58989,-12.0097 0.36769,-5.1454 0.84346,-5.9471 4.084,-6.8813 3.04612,-0.8784 4.08194,-2.9274 3.16309,-6.2574 -0.25646,-0.9295 -0.51697,-2.3247 -0.57928,-3.1007 -0.17843,-2.2238 0.40982,-2.6463 4.80592,-3.4515 1.8169,-0.3328 2.5404,-0.8789 2.5404,-1.9166 0,-1.3494 -1.30257,-2.4122 -5.46478,-4.4593 -2.98543,-1.4682 -4.16518,-2.2034 -5.13509,-3.1991 -3.50247,-3.5959 -2.31582,-8.1034 3.23133,-12.2732 l 1.60041,-1.2031 h -1.07175 c -0.98009,0 -1.25386,0.1768 -3.19156,2.063 -2.42948,2.3651 -3.43223,4.1968 -3.65765,6.6828 -0.12626,1.3923 -0.0457,1.7677 0.70538,3.2933 1.13665,2.3088 2.37088,3.3028 7.06469,5.688 5.47476,2.7821 6.15961,3.8952 2.67322,4.345 -3.2924,0.4249 -4.74073,1.2814 -5.22809,3.0911 -0.22992,0.8538 -0.17904,1.474 0.27593,3.3539 0.78045,3.2245 0.77137,3.1456 0.493,4.1537 -0.30728,1.1131 -1.21954,1.7862 -3.19101,2.3545 -3.07498,0.8864 -3.84508,2.2434 -4.21319,7.43 -0.36955,5.2073 -1.39542,9.0472 -2.81327,10.5275 -1.32349,1.382 -3.49324,0.6594 -4.01732,-1.3374 -0.14118,-0.5379 -0.38323,-2.2278 -0.53846,-3.7558 -1.05082,-10.3431 -1.65012,-12.9706 -3.69488,-16.2084 -1.3299,-2.1058 -2.77296,-3.4686 -5.19348,-4.9051 -2.38543,-1.4155 -4.71707,-2.0171 -7.05537,-1.8216 -2.32281,0.1944 -3.64078,0.8059 -5.89577,2.7368 -1.01864,0.8724 -2.05854,1.6619 -2.31097,1.754 -1.02849,0.3767 -1.10488,-1.5217 -0.13642,-3.3899 0.22801,-0.44 1.24356,-1.5367 2.25671,-2.4371 2.09997,-1.8663 3.25919,-3.5269 4.03542,-5.7806 0.75475,-2.1913 1.3126,-5.897 1.3136,-8.727 0.002,-4.0487 0.62791,-6.3405 2.26137,-8.2817 l 0.69763,-0.829 z m 3.33261,0 c -0.55478,0 -0.56121,0.3969 -0.0398,2.5705 0.11197,0.4667 -0.24107,0.9525 -1.73014,2.3812 -1.04725,1.0046 -2.05775,2.249 -2.29547,2.8266 -0.23355,0.5675 -0.53071,2.413 -0.66043,4.101 -0.39037,5.08 -0.81262,6.6106 -2.59413,9.4051 -0.97071,1.5227 -1.02762,2.0061 -0.31316,2.6528 0.45259,0.4095 0.67616,0.4325 1.70478,0.1735 2.30783,-0.581 5.76356,-0.2048 8.71006,0.9488 2.56418,1.0038 6.06976,3.7582 6.97479,5.4798 0.71673,1.3631 1.3947,4.8355 1.9327,9.9018 0.7044,6.6331 0.95409,8.1753 1.44693,8.9275 v 6e-4 c 0.49683,0.7583 1.46746,0.8353 2.0743,0.1648 1.15324,-1.2745 2.43335,-5.874 2.72437,-9.788 0.2319,-3.1192 0.7049,-4.3003 2.36886,-5.9177 0.82974,-0.8064 1.62407,-1.8801 1.87325,-2.5326 0.40312,-1.0554 0.40159,-1.2141 -0.0222,-2.3238 -0.52605,-1.3774 -1.35073,-2.1047 -5.70249,-5.0292 -4.74197,-3.1864 -5.82694,-4.4521 -5.81514,-6.7844 0.009,-1.804 0.7765,-3.0793 3.47938,-5.7838 1.38009,-1.3809 3.37243,-3.7367 4.42764,-5.2353 1.05518,-1.4986 2.63723,-3.4928 3.51554,-4.4318 l 1.59679,-1.7074 h -0.80304 c -0.97313,0 -2.6571,1.7656 -5.16662,5.4158 -0.89726,1.3052 -2.85218,3.6258 -4.3439,5.1573 -1.49178,1.5314 -2.91264,3.2019 -3.15796,3.7123 -0.58672,1.2208 -0.75513,3.6613 -0.33952,4.9207 0.3815,1.156 2.27129,3.2838 3.668,4.1299 2.13924,1.2965 6.9288,4.7829 7.30187,5.3155 0.21978,0.3138 0.39946,1.0308 0.39946,1.5933 0,0.8856 -0.20801,1.2404 -1.55442,2.653 -0.85482,0.8969 -1.75403,2.0235 -1.99832,2.5043 -0.24429,0.4805 -0.60968,2.2667 -0.81185,3.9687 -0.48265,4.0638 -1.04976,6.662 -1.78438,8.1706 -1.12,2.3001 -1.26341,1.9034 -2.04845,-5.6742 -0.5768,-5.5674 -0.99309,-8.0984 -1.75596,-10.6733 -0.35076,-1.1838 -0.76939,-1.768 -2.44483,-3.4126 -2.91759,-2.8641 -5.48783,-4.1143 -10.08878,-4.9083 -2.03933,-0.3516 -2.54748,-0.3559 -3.94964,-0.032 -1.07143,0.2471 -1.6092,0.2781 -1.6092,0.092 0,-0.1538 0.47128,-1.0608 1.04749,-2.0154 1.27031,-2.1047 1.7917,-4.2153 2.12751,-8.6151 0.29983,-3.9277 0.65839,-4.7916 2.7218,-6.5545 1.87094,-1.5986 2.18082,-2.3423 1.78024,-4.2717 -0.25114,-1.2099 -0.40362,-1.4764 -0.84592,-1.4764 z m 2.66959,0 c -0.44746,0 -0.48067,0.1527 -0.33589,1.5381 0.18992,1.8169 -0.0235,2.3214 -2.03142,4.8119 -2.3278,2.8874 -2.7156,4.014 -2.85199,8.2812 -0.16873,5.2779 0.36994,6.2169 4.10877,7.1618 2.00964,0.508 5.63977,2.2923 7.13549,3.5073 1.38094,1.1218 3.38947,4.1111 4.11086,6.1179 0.45569,1.2679 0.57412,2.4072 0.70797,6.8141 0.0884,2.9104 0.25691,5.4407 0.37465,5.6224 0.11774,0.1818 0.42688,0.3308 0.68678,0.3308 1.04563,0 1.32183,-0.8171 1.86396,-5.5076 0.2893,-2.503 0.63924,-4.7583 0.77775,-5.0118 0.1385,-0.2534 0.73268,-0.9265 1.31982,-1.4954 2.02975,-1.9669 1.66621,-3.3985 -1.36531,-5.3805 -3.39243,-2.218 -7.77803,-5.8368 -8.23153,-6.7924 -0.57473,-1.2113 -0.53438,-2.7692 0.13023,-5.0205 1.07971,-3.6571 2.13466,-5.2366 6.47351,-9.6909 2.19974,-2.2579 4.14168,-4.3714 4.31548,-4.6963 0.28536,-0.5332 0.25758,-0.5869 -0.28834,-0.5559 -0.81296,0.046 -8.56673,8.0605 -9.69399,10.02 -0.92906,1.615 -2.2702,5.534 -2.55849,7.4761 -0.15738,1.0602 -0.0755,1.4853 0.51832,2.699 0.78038,1.5952 3.29845,3.7938 8.05685,7.0358 3.15092,2.1468 3.29861,2.5733 1.54204,4.4513 -1.4298,1.5285 -1.66515,2.2352 -2.0371,6.1191 -0.47927,5.0043 -0.65617,4.9469 -0.81442,-0.2646 -0.16446,-5.4166 -0.421,-6.5596 -2.11407,-9.4057 -1.57747,-2.6519 -3.48067,-4.35 -6.60064,-5.8896 -1.52797,-0.7538 -3.46292,-1.5068 -4.29998,-1.6733 -1.78279,-0.3545 -2.74863,-1.1718 -3.00604,-2.5439 -0.24482,-1.3049 0.033,-6.0622 0.43151,-7.3893 0.18246,-0.6075 1.0369,-2.0362 1.8986,-3.175 2.1237,-2.8062 2.59466,-3.7767 2.59466,-5.3454 0,-1.6497 -0.19002,-2.1487 -0.81804,-2.1487 z m 2.93471,0 c -0.43577,0 -0.52917,0.1762 -0.52917,0.9994 0,1.0848 -1.11916,3.5464 -2.91404,6.409 -2.27505,3.6285 -2.68965,7.2451 -1.15393,10.0697 0.41825,0.7692 1.22513,1.7352 1.79266,2.1466 0.56753,0.4114 1.14205,0.7483 1.27693,0.7483 0.13489,0 0.59317,-0.3482 1.01854,-0.7737 0.58412,-0.5839 0.77367,-1.0213 0.77565,-1.7859 0.004,-1.8884 0.54338,-4.4466 1.24386,-5.8952 0.79063,-1.6351 3.90094,-5.0027 7.03678,-7.6192 1.13583,-0.9478 2.48589,-2.273 3.00032,-2.9451 0.8431,-1.1012 0.88509,-1.2292 0.42117,-1.3012 -0.53851,-0.083 -2.3848,1.5425 -7.75248,6.8265 -3.75597,3.6973 -5.01004,6.2468 -5.01004,10.1843 0,0.6004 -0.16928,1.3227 -0.37621,1.6053 -0.37114,0.5064 -0.3864,0.5059 -1.12292,-0.043 -0.41064,-0.3058 -1.04503,-1.1363 -1.40973,-1.8452 -1.28855,-2.5048 -0.67574,-6.2174 1.56372,-9.4723 2.28065,-3.3147 3.44945,-7.3081 2.13889,-7.3081 z m 33.10289,0 c -1.03359,0 -4.01902,1.8278 -4.52273,2.7689 -0.50628,0.9462 -0.075,1.7296 1.65676,3.0091 2.79866,2.0675 3.51346,3.4134 2.59829,4.8943 -0.3057,0.4947 -0.55605,1.207 -0.55605,1.5832 0,0.721 0.0831,0.7967 2.84687,2.5911 2.60059,1.6886 6.22911,5.9261 7.86513,9.1861 1.28075,2.5519 1.79356,4.917 1.78957,8.2465 -0.006,4.6294 -1.19378,7.3025 -4.64416,10.4516 -1.02597,0.9363 -2.7074,2.1463 -3.73673,2.6887 -1.65256,0.8707 -2.14183,0.9996 -4.1832,1.0985 -1.95696,0.096 -2.65337,0.01 -4.53668,-0.5807 -1.22367,-0.3816 -2.50862,-0.6935 -2.85511,-0.6935 -1.61783,0 -2.79702,2.159 -2.49132,4.5603 0.39465,3.1007 1.75014,4.6784 5.53453,6.4432 2.12505,0.9908 2.93499,1.8896 3.61323,4.0074 0.69487,2.1701 1.4456,3.5009 2.9166,5.1702 1.3507,1.533 3.13897,2.7987 4.60076,3.2562 0.59719,0.1868 2.09775,0.3445 3.33468,0.3545 2.92955,0.02 4.51006,-0.6596 5.88129,-2.5275 1.68288,-2.2924 2.07976,-4.013 2.34095,-10.1518 0.31115,-7.3128 0.8554,-12.1955 1.57819,-14.1552 0.49218,-1.3346 1.00171,-1.9987 3.19775,-4.1672 1.60621,-1.5862 2.61224,-2.7871 2.61224,-3.1181 0,-0.7842 -0.59979,-0.3916 -3.2887,2.1537 -3.16116,2.9924 -3.97451,4.6762 -4.5227,9.3649 -0.2212,1.8918 -0.51462,5.9994 -0.65217,9.1281 -0.29943,6.8109 -0.62011,8.2691 -2.32027,10.5455 -0.98896,1.3245 -2.44395,1.8738 -4.95887,1.8839 -1.80213,0 -2.36196,-0.1106 -3.76825,-0.7758 -0.93141,-0.4405 -2.18969,-1.3348 -2.8856,-2.0505 -1.12977,-1.1618 -3.00344,-4.472 -3.00344,-5.3068 0,-0.6022 -1.0726,-2.4828 -1.80817,-3.1697 -0.38782,-0.3622 -1.65788,-1.1152 -2.82204,-1.6737 -3.41289,-1.6375 -4.3764,-2.8988 -4.4173,-5.7801 -0.0238,-1.6764 0.31983,-2.5501 1.10019,-2.7977 0.28572,-0.091 1.50596,0.1587 2.71198,0.5538 2.69692,0.8839 5.70383,0.99 7.79849,0.2759 3.44175,-1.1731 7.89254,-5.1072 9.44644,-8.3497 2.05968,-4.2979 1.91127,-10.1507 -0.38187,-15.0773 -1.63944,-3.5219 -5.42645,-7.9515 -8.53437,-9.9827 -1.04651,-0.684 -1.99877,-1.3261 -2.11614,-1.4274 -0.1174,-0.1008 0.0478,-0.721 0.3669,-1.3777 1.02766,-2.1151 0.2459,-3.7762 -2.85615,-6.0677 -1.72107,-1.2713 -1.77549,-1.8029 -0.2739,-2.6853 0.61846,-0.3632 1.58766,-1.0292 2.15336,-1.4798 l 1.02836,-0.8197 z m 10.91872,0 c -0.23548,0 -0.82854,0.3519 -1.31826,0.7819 -0.48974,0.4299 -1.3457,0.9181 -1.90222,1.0848 -2.34789,0.7032 -2.81551,1.8706 -1.4459,3.6094 0.43572,0.5533 1.09768,1.6121 1.47122,2.353 0.51395,1.0191 1.25277,1.7999 3.03652,3.2091 3.61174,2.8527 6.26231,6.8948 8.0305,12.2452 1.06799,3.2316 1.40038,3.8661 2.28306,4.3608 0.75015,0.421 1.78379,0.3879 3.03961,-0.098 0.53004,-0.2048 0.72761,-0.4643 0.72761,-0.9559 0,-0.6686 -0.007,-0.671 -0.81598,-0.2527 -1.03179,0.5331 -2.2833,0.576 -2.75537,0.094 -0.20029,-0.2042 -0.79886,-1.6806 -1.33067,-3.2813 -1.91135,-5.7529 -4.6251,-9.9187 -8.43878,-12.9548 -1.66039,-1.3219 -2.56871,-2.2426 -2.76262,-2.7988 -0.15888,-0.4559 -0.70858,-1.3999 -1.2211,-2.0981 -0.51253,-0.6983 -0.93173,-1.3843 -0.93173,-1.5248 0,-0.1408 0.77467,-0.585 1.72185,-0.9877 2.1217,-0.9017 3.88877,-2.7869 2.61226,-2.7869 z m -17.45578,6e-4 c -1.12257,-8e-4 -1.62023,0.1751 -2.974,1.0501 -4.39211,2.8387 -6.60085,7.2112 -5.16816,10.2304 0.63,1.3274 2.667,2.9858 6.01256,4.8958 8.72762,4.9821 12.03772,8.1204 13.44157,12.7424 1.3281,4.3725 -0.28321,9.0006 -3.84524,11.0437 -2.00861,1.152 -3.25877,1.0668 -8.30183,-0.567 -6.12315,-1.9834 -8.1528,-1.8659 -9.81438,0.5701 -0.56126,0.8229 -0.6023,1.0801 -0.42323,2.6319 0.32639,2.8289 0.19881,4.5034 -0.53125,6.981 -1.35996,4.6151 -3.33476,7.5343 -5.49011,8.1148 -2.2066,0.5939 -4.39483,-1.3851 -5.50455,-4.9782 -0.52128,-1.6875 -0.80497,-3.7044 -1.31103,-9.3239 -0.35486,-3.9404 -0.86792,-5.9722 -2.20039,-8.7096 -2.45419,-5.0419 -7.1629,-7.8504 -11.59877,-6.9183 -5.04767,1.0605 -8.63973,5.4515 -10.52597,12.8683 -3.03909,11.9499 0.82904,24.8399 10.08774,33.6166 5.71063,5.4134 12.92529,8.4736 22.36298,9.4848 9.81062,1.0512 11.35986,1.2608 13.70097,1.8545 5.50534,1.3967 8.75157,4.4119 7.44813,6.918 -0.93853,1.8045 -2.65232,2.6951 -7.06263,3.6706 -3.75198,0.8297 -4.94798,1.6523 -5.38933,3.7073 -0.26884,1.2518 0.56947,2.3101 2.72749,3.4441 3.28387,1.7259 5.3286,3.9886 4.95371,5.4825 -0.0933,0.3714 -0.88016,1.5261 -1.74874,2.5656 -2.39366,2.8649 -2.42398,4.5829 -0.10697,6.0328 6.44306,4.0317 6.49325,4.0963 7.37577,9.4588 0.21555,1.3097 0.51961,3.0062 0.67593,3.7704 0.24788,1.2115 0.36568,1.389 0.92035,1.389 0.55176,0 0.60529,-0.08 0.40722,-0.6006 -0.12554,-0.3302 -0.42463,-1.9394 -0.66455,-3.5753 -0.55912,-3.8126 -1.25183,-6.0243 -2.27428,-7.2602 -0.44821,-0.5416 -2.10992,-1.7851 -3.69279,-2.763 -1.60367,-0.9909 -3.00122,-2.0479 -3.1559,-2.3873 -0.38642,-0.8483 -0.0149,-1.6836 1.54668,-3.4796 1.36562,-1.5705 1.86758,-2.55 1.86758,-3.642 0,-1.6896 -2.2066,-4.237 -4.80435,-5.5459 -2.2941,-1.1562 -2.86856,-1.6521 -2.86856,-2.4786 0,-0.9112 0.79541,-1.9653 1.77715,-2.3553 0.4051,-0.1609 1.875,-0.5202 3.26647,-0.7986 3.10184,-0.6199 5.19567,-1.5782 6.42752,-2.9419 2.79686,-3.0956 0.439,-7.158 -5.28029,-9.0979 -2.72211,-0.9234 -5.62994,-1.4153 -12.75736,-2.1593 -7.1356,-0.7445 -9.09942,-1.0959 -12.5145,-2.2399 -7.54499,-2.5279 -13.73825,-7.3703 -18.05213,-14.114 -1.74606,-2.7297 -3.72184,-7.5967 -4.38991,-10.8148 -1.77887,-8.5688 0.24183,-18.9902 4.59351,-23.6905 2.02417,-2.1866 3.70599,-3.0417 6.27147,-3.1901 3.44427,-0.1993 6.05192,1.1469 8.28683,4.2788 2.14879,3.0112 2.90182,5.7092 3.46903,12.4272 0.56859,6.7342 1.45622,9.6531 3.58119,11.778 3.93316,3.9332 8.7626,0.2704 10.98278,-8.3302 0.55062,-2.1331 0.63976,-2.9271 0.48783,-4.3315 -0.38142,-3.5261 -0.32371,-3.9462 0.65784,-4.8233 0.85391,-0.7628 0.97255,-0.7919 2.76987,-0.6689 1.25508,0.086 3.15042,0.5485 5.71436,1.3954 4.45604,1.4714 6.00112,1.6029 8.06979,0.6855 1.63389,-0.7241 3.57093,-2.7421 4.55425,-4.7442 0.67736,-1.3793 0.73742,-1.7507 0.73742,-4.5445 0,-3.0395 -10e-4,-3.0456 -1.13223,-5.4001 -0.928,-1.9317 -1.52498,-2.7461 -3.30729,-4.513 -2.34085,-2.3207 -4.02532,-3.5118 -9.18652,-6.4966 -6.27504,-3.6293 -7.33491,-5.0289 -6.21461,-8.2042 0.86492,-2.4514 3.24643,-4.7712 6.66729,-6.4942 l 1.79628,-0.9049 z m 9.032,0.01 c -0.85638,-0.01 -1.22999,0.1709 -2.05052,0.9721 -1.51334,1.478 -1.41166,2.3352 0.5152,4.3553 l 1.51826,1.5917 0.003,2.2741 0.003,2.2744 1.90998,1.5507 c 5.11307,4.1526 9.10876,10.7259 10.14045,16.6833 0.4477,2.5852 0.21206,7.1041 -0.46715,8.9644 -1.01407,2.7775 -4.01601,6.5688 -6.09886,7.7022 -1.61774,0.8806 -3.97637,1.4328 -7.07192,1.6563 -3.16489,0.2286 -4.2991,0.5443 -5.2007,1.446 -0.5661,0.5659 -0.75242,1.0038 -0.75242,1.7714 0,1.3652 0.47225,1.9626 2.78175,3.5213 1.6692,1.1263 2.22509,1.7185 3.83593,4.0849 2.04359,3.0022 3.20625,4.1799 4.87466,4.9377 1.68036,0.7633 3.12647,0.658 4.22558,-0.307 2.4081,-2.1142 3.27771,-4.4524 4.24934,-11.4225 1.05299,-7.5536 1.21454,-8.4014 2.03089,-10.6567 1.13077,-3.1242 2.83625,-5.2824 5.62498,-7.1189 1.80653,-1.1898 2.27532,-1.6287 2.27532,-2.1317 0,-0.6162 -0.0553,-0.6006 -2.05053,0.6022 -2.73827,1.6505 -4.74241,3.7441 -6.07869,6.3503 -1.26106,2.4598 -1.8964,5.1323 -2.71664,11.4263 -0.96075,7.372 -1.66796,9.6377 -3.65508,11.7078 -1.05731,1.1014 -1.78599,1.2353 -3.29436,0.6051 -1.50323,-0.6279 -2.47843,-1.6227 -4.49275,-4.5821 -1.25027,-1.8367 -2.30643,-3.0737 -3.08147,-3.6092 -2.82755,-1.9534 -3.33817,-2.4251 -3.42408,-3.1641 -0.18116,-1.5587 0.91535,-1.9937 6.3474,-2.5173 4.75957,-0.4588 6.88086,-1.4687 9.36689,-4.4595 1.93228,-2.3246 2.90483,-4.0151 3.59047,-6.2389 0.49171,-1.5949 0.54206,-2.2627 0.42892,-5.6885 -0.1496,-4.5302 -0.758,-6.8617 -2.77244,-10.6283 -2.15699,-4.0331 -4.8573,-7.3854 -7.9003,-9.8066 l -1.7508,-1.3933 0.17571,-1.6428 c 0.22006,-2.055 -0.15417,-3.0059 -1.81335,-4.609 -0.67145,-0.6488 -1.22057,-1.3687 -1.22057,-1.5999 0,-0.4406 1.60583,-2.1029 2.51354,-2.6019 0.45868,-0.2519 0.38939,-0.2892 -0.51832,-0.2993 z m 10.88046,0.014 c -0.32028,0.02 -0.38999,0.1117 -0.29197,0.2704 0.3319,0.5368 1.9171,1.0229 4.66535,1.4309 3.86109,0.5728 4.29104,0.9649 3.776,3.4435 -0.14748,0.7099 0.0241,1.0142 1.50895,2.6805 1.65795,1.8611 1.67558,1.8722 1.75908,1.0988 0.0673,-0.6236 -0.15992,-1.0432 -1.12448,-2.0743 -1.33652,-1.429 -1.35903,-1.4909 -0.80357,-2.2251 0.53203,-0.7036 0.48779,-1.274 -0.16383,-2.1024 -0.84325,-1.0719 -1.73133,-1.41 -5.24928,-2.0003 -2.31227,-0.3881 -3.54242,-0.5551 -4.07625,-0.522 z m -39.20225,0.01 -1.78594,0.025 c -0.98226,0.014 -1.78594,0.075 -1.78594,0.136 0,0.061 0.12325,0.3407 0.2739,0.6223 v 2e-4 c 0.38767,0.7244 1.64605,0.6575 2.5554,-0.1357 z m 22.48492,0.01 c -0.62055,0 -1.19795,0.2257 -2.14198,0.7977 -2.91095,1.7642 -3.85072,3.493 -2.44996,4.5056 3.52671,2.5498 4.00695,2.9681 4.34649,3.7809 0.32316,0.7734 0.3207,1.0408 -0.0191,2.0039 -0.67262,1.9064 -0.53131,2.653 0.73226,3.8674 0.61847,0.5946 2.0479,1.755 3.17603,2.5792 2.44608,1.7875 3.84826,3.188 5.2736,5.2673 3.89625,5.6843 4.12895,12.0425 0.61598,16.8146 -1.36917,1.86 -3.51407,3.0636 -6.31227,3.543 -2.31005,0.3956 -4.219,0 -7.66517,-1.5767 -3.76499,-1.7258 -5.529,-1.843 -6.45594,-0.4286 -0.35713,0.5453 -0.49882,1.5428 -0.62994,4.4381 -0.18683,4.1252 -0.61138,6.0029 -1.91617,8.4728 -1.056,1.9992 -3.61214,4.6085 -5.33456,5.4462 -2.62482,1.2766 -6.66474,0.4868 -8.46666,-1.6547 -1.85902,-2.2093 -2.32799,-4.1659 -3.03236,-12.6595 -0.72782,-8.7763 -1.09623,-10.0989 -3.47785,-12.4804 -1.41875,-1.419 -3.09467,-2.312 -4.35165,-2.322 -2.37059,-0.017 -6.34217,3.3655 -8.24344,7.021 -3.25752,6.2626 -3.41828,13.9398 -0.47024,22.4245 2.09232,6.0216 6.32028,11.6474 10.64016,14.1575 5.16689,3.0025 6.78842,3.501 14.75621,4.5374 8.53408,1.1099 11.18873,1.6232 19.27532,3.7237 11.13118,2.8914 12.75247,3.7103 15.90911,8.0418 1.945,2.6691 3.30485,3.9116 4.80332,4.3878 v 6e-4 c 1.62301,0.5162 3.24601,0.1322 6.43681,-1.5214 2.29105,-1.1872 3.07388,-1.7235 3.13727,-2.1497 0.0465,-0.3122 0.0148,-0.5684 -0.0703,-0.5684 -0.0851,0 -1.61113,0.7343 -3.39154,1.6315 -2.53894,1.2795 -3.49856,1.6287 -4.44984,1.6385 -1.98633,0.011 -3.35637,-0.9914 -5.51852,-4.041 -1.01748,-1.4351 -2.35987,-2.9882 -2.98328,-3.4509 -2.05298,-1.524 -5.26317,-2.8758 -9.46867,-3.9878 -11.97481,-3.1663 -14.12957,-3.6058 -23.93551,-4.8784 -2.90584,-0.377 -6.00146,-0.8657 -6.87916,-1.0861 -2.08238,-0.5234 -6.51677,-2.7575 -8.64444,-4.3553 -1.95699,-1.4698 -4.78579,-4.7842 -6.30762,-7.3898 -4.22201,-7.229 -5.42306,-17.2596 -2.89594,-24.184 1.39448,-3.8209 3.89101,-6.9316 6.67451,-8.3169 1.61301,-0.8025 2.74206,-0.5906 4.49069,0.8435 2.70322,2.2166 3.24173,4.1169 4.01939,14.1851 0.56849,7.3601 1.4201,10.0973 3.79151,12.1848 2.3305,2.0513 6.56725,2.6347 9.18239,1.2639 2.95103,-1.5467 5.66444,-4.8487 6.92565,-8.4272 0.5796,-1.6447 0.72581,-2.6263 0.86405,-5.8153 0.0982,-2.2643 0.30136,-4.0804 0.4966,-4.4318 0.48112,-0.8659 1.65119,-0.7612 4.14912,0.3705 4.2859,1.9417 5.58517,2.2854 8.06979,2.1354 4.03447,-0.2437 6.93232,-1.878 8.7762,-4.949 3.34005,-5.5631 2.66028,-12.042 -1.90635,-18.1668 -1.50614,-2.0204 -1.90979,-2.4038 -4.75318,-4.5104 -2.49349,-1.8476 -3.96875,-3.2464 -3.96875,-3.7637 0,-0.2204 0.19274,-0.9054 0.42838,-1.5224 0.82664,-2.1646 -0.13729,-3.9423 -3.21789,-5.9346 -0.93974,-0.6075 -1.70841,-1.2547 -1.70841,-1.4375 0,-0.4892 1.48889,-1.7132 3.5388,-2.9083 l 1.80247,-1.0512 -0.97514,-0.084 c -0.0916,-0.01 -0.18161,-0.012 -0.27028,-0.011 z m -37.74445,0.8834 c -1.12755,-0.038 -2.34476,2.403 -1.48881,3.2589 0.56084,0.5609 1.71945,0.3707 2.30942,-0.3794 0.88413,-1.124 0.61253,-2.4151 -0.59685,-2.8374 -0.0737,-0.026 -0.14859,-0.039 -0.22376,-0.042 z m -13.17077,0.8782 c -0.28112,-0.017 -0.61323,0.1061 -1.0046,0.354 -1.10387,0.6987 -2.28139,2.5193 -3.02979,4.685 -0.50642,1.4655 -0.60399,2.2701 -0.58238,4.8032 0.0298,3.492 0.43191,5.951 1.09191,6.6802 0.57147,0.6316 1.75165,0.4538 2.66187,-0.4006 1.2387,-1.1626 2.66313,-3.6237 2.97966,-5.1485 0.26818,-1.2917 0.24704,-1.7187 -0.1473,-2.9697 -0.25328,-0.8035 -0.51559,-2.4749 -0.58237,-3.7139 -0.15836,-2.9364 -0.54367,-4.2397 -1.387,-4.2897 z m 13.10616,0.1156 c 0.0701,0 0.11954,0.1085 0.20466,0.3302 0.0987,0.2572 0.0439,0.6308 -0.12198,0.8305 -0.69051,0.8321 -1.06828,0.085 -0.41132,-0.8133 0.16807,-0.2299 0.25853,-0.345 0.32864,-0.3474 z m 58.14428,0.3731 c -0.36378,-0.01 -0.8087,-0.01 -1.36634,0 -4.64243,0.078 -6.36926,0.8199 -6.01617,2.5855 0.18751,0.9374 1.19803,2.0505 3.6618,4.0327 2.24896,1.8093 3.75082,3.6934 4.35372,5.4616 0.25713,0.754 0.86474,2.145 1.3498,3.0908 0.48506,0.9459 1.11641,2.3395 1.40354,3.0975 0.28712,0.758 0.88183,1.6806 1.32135,2.0505 0.94319,0.7935 0.98846,0.8001 1.78544,0.2419 0.57076,-0.3998 0.60539,-0.567 0.48212,-2.3151 -0.0731,-1.0364 -0.26022,-2.7176 -0.41598,-3.7362 -0.15578,-1.0187 -0.41791,-3.0607 -0.5824,-4.5376 -0.38883,-3.4915 -0.91749,-4.3278 -3.83386,-6.0619 -0.44421,-0.264 -0.43686,-0.3268 0.12866,-1.0917 0.73213,-0.9903 0.64826,-1.5737 -0.33073,-2.304 -0.48812,-0.3638 -0.84965,-0.4918 -1.94095,-0.5177 z m -71.51812,0.6315 c 0.0506,-0.01 0.0929,0 0.12504,0.037 0.0721,0.072 0.24366,1.4306 0.38137,3.0189 0.13774,1.5883 0.42572,3.4404 0.63977,4.1156 0.59258,1.8687 0.0214,3.869 -1.74668,6.119 -0.43079,0.5482 -1.01108,1.1187 -1.28931,1.2676 -0.70012,0.3747 -0.94404,-0.363 -1.30069,-3.9306 -0.34473,-3.4481 0.0374,-5.7918 1.34461,-8.2444 0.71961,-1.3502 1.49161,-2.3313 1.84589,-2.3829 z m 70.19208,0.4694 c 1.13432,-0.011 2.12056,0.071 2.49341,0.2744 l 0.59634,0.3243 -0.5643,0.7628 c -0.79505,1.0756 -0.50999,1.9426 0.91207,2.776 2.0724,1.2147 2.31579,1.6463 2.72283,4.8258 0.20148,1.5735 0.50228,3.8137 0.66817,4.9778 0.16592,1.1642 0.35613,2.6824 0.42273,3.3735 0.067,0.6953 0.0102,1.2568 -0.12764,1.2568 -0.28919,0 -1.125,-0.8713 -1.125,-1.1727 0,-0.1124 -0.63606,-1.5909 -1.41336,-3.2861 -0.77729,-1.6949 -1.70002,-3.7309 -2.05052,-4.5236 -0.65807,-1.4885 -2.52653,-3.5597 -5.34799,-5.9274 -0.84103,-0.7057 -1.72588,-1.5833 -1.96628,-1.9503 -0.40897,-0.6239 -0.40727,-0.6887 0.029,-1.0075 0.55845,-0.4085 2.86006,-0.6856 4.75059,-0.7038 z m -25.39275,1.638 c -0.75166,0 -2.00724,1.129 -2.50373,2.2516 -0.43656,0.9869 -0.45341,1.2552 -0.15089,2.4215 0.45937,1.7708 1.5349,3.1014 3.16312,3.9129 v -5e-4 c 1.67055,0.8326 2.08595,0.8403 3.00085,0.053 0.6077,-0.5229 0.74139,-0.8824 0.84127,-2.2628 l 0.11888,-1.6412 -1.17721,-1.1281 c -0.64741,-0.6205 -1.56083,-1.6857 -2.02983,-2.3673 -0.46903,-0.6818 -1.03725,-1.2393 -1.26246,-1.2393 z m -0.26202,1.3512 c 0.24834,-0.035 0.44355,0.1194 0.55399,0.4673 0.0865,0.2728 0.8092,1.1581 1.60559,1.9674 1.50064,1.5248 1.70464,2.1194 1.1901,3.4727 h -5e-4 c -0.55568,1.4613 -3.18003,0.3548 -4.21164,-1.7761 -0.70498,-1.4566 -0.70771,-2.5739 -0.009,-3.4624 0.32173,-0.409 0.62293,-0.6337 0.87124,-0.6689 z m -45.66801,1.3222 c -0.32165,0.026 -0.62907,0.2389 -0.88984,0.6371 -0.57407,0.876 -0.67453,4.8644 -0.13902,5.5113 0.49364,0.5961 1.1728,0.5508 1.77869,-0.1183 0.73626,-0.8133 0.89855,-4.8001 0.22582,-5.5436 -0.31795,-0.3513 -0.65397,-0.5127 -0.97565,-0.4865 z m 0.063,1.2954 c 0.14788,0 0.25638,0.671 0.24599,1.5213 -0.03,2.4535 -0.47027,2.9271 -0.49197,0.5292 -0.0109,-1.2031 0.0907,-2.0505 0.24598,-2.0505 z m 35.21128,1.8521 c -0.81126,0 -3.66887,2.0417 -4.39661,3.1414 -1.97318,2.9815 -0.63068,6.0335 3.98942,9.0678 1.02505,0.6731 2.21154,1.6798 2.63652,2.237 0.425,0.5572 0.98557,1.2258 1.24542,1.4856 1.01939,1.0195 1.70095,0.4292 2.06137,-1.7854 0.30226,-1.8573 0.73927,-2.3746 2.33524,-2.7633 1.41041,-0.3431 1.94151,-0.6823 2.39159,-1.5274 0.52695,-0.9893 -0.0358,-1.5238 -3.23649,-3.0742 -3.45665,-1.6746 -4.75279,-2.7541 -5.17075,-4.3064 -0.35544,-1.32 -1.22163,-2.4751 -1.85571,-2.4751 z m -0.19068,1.2361 c 0.46556,-0.02 0.70561,0.4548 0.98237,1.4824 0.15843,0.5885 0.47625,1.3574 0.70644,1.7085 0.59354,0.9059 3.29525,2.6781 5.62393,3.6893 1.0914,0.4739 2.0207,1.0327 2.06499,1.2412 0.0546,0.2571 -0.46649,0.5609 -1.61645,0.9437 -2.11571,0.7038 -2.78669,1.3962 -3.06543,3.1594 -0.11885,0.7517 -0.26331,1.4105 -0.32091,1.4645 -0.0577,0.054 -0.49393,-0.4228 -0.96946,-1.0589 -0.47551,-0.636 -1.75467,-1.7568 -2.84221,-2.4908 -2.58702,-1.7457 -3.66993,-2.8585 -4.24315,-4.3592 -0.4535,-1.1875 -0.45225,-1.269 0.0403,-2.4575 0.36372,-0.8776 0.94187,-1.5647 2.02055,-2.4024 0.75837,-0.5887 1.25692,-0.9043 1.61901,-0.9202 z m -0.82474,1.9666 c -0.34107,-0.01 -0.66936,0.1458 -0.9612,0.4683 -0.67601,0.747 -0.81994,2.1956 -0.32195,3.2391 0.57508,1.2049 2.40507,3.3065 3.68973,4.237 0.5762,0.4173 1.32095,0.7591 1.65467,0.7591 0.77309,0 1.43039,-0.9321 1.43039,-2.0278 0,-0.6995 -0.24175,-1.0549 -1.35443,-1.9915 -0.88108,-0.7419 -1.56405,-1.6131 -1.95389,-2.4929 -0.6209,-1.4015 -1.43298,-2.178 -2.18332,-2.1913 z m -0.006,1.3386 c 0.34403,0.01 0.80851,0.5434 1.29294,1.5539 0.43685,0.9112 1.16535,1.8412 1.93788,2.4743 0.86633,0.7099 1.21352,1.1782 1.15703,1.5595 -0.14968,1.0112 -0.7493,0.775 -2.45722,-0.9668 -1.97164,-2.0108 -2.63072,-3.1234 -2.39831,-4.0494 0.0978,-0.3895 0.26128,-0.5758 0.46768,-0.5715 z m -41.67291,1.3956 c -0.0846,0 -0.10697,0.1852 -0.1452,0.5205 -0.0482,0.423 0.12308,1.2356 0.38034,1.806 0.40761,0.9041 0.42402,1.179 0.12919,2.1416 -0.18608,0.6074 -0.39216,1.5806 -0.45786,2.1627 l -0.11938,1.0583 0.63976,-0.7564 c 1.45765,-1.7235 1.60441,-4.0188 0.37568,-5.8794 -0.48199,-0.7299 -0.69381,-1.0493 -0.80253,-1.0533 z m 59.23772,6.781 c -0.34846,0 -0.70511,0.01 -1.05058,0.022 -2.69655,0.099 -3.37582,0.3847 -4.49998,1.8905 -0.44783,0.5998 -0.53308,1.1575 -0.56377,3.6875 -0.0199,1.6396 -0.12992,3.6957 -0.24445,4.5688 -0.18574,1.4158 -0.14526,1.6666 0.37414,2.3223 0.63212,0.7979 2.01872,1.5843 4.10105,2.3259 v 5e-4 c 1.62179,0.5776 4.39568,0.6485 5.37382,0.1376 2.9981,-1.5663 4.96204,-7.4779 3.52382,-10.6071 -0.6944,-1.5108 -3.41529,-4.0172 -4.60332,-4.24 -0.39127,-0.073 -1.36528,-0.1135 -2.41073,-0.1077 z m 2.47065,0.9819 1.71723,1.6497 c 1.0137,0.9734 1.84311,2.0304 2.02467,2.5807 0.74761,2.2651 -0.56115,6.4934 -2.55127,8.2407 -0.7937,0.697 -1.13205,0.8139 -2.30992,0.7991 -1.58686,-0.02 -2.9351,-0.4038 -4.8359,-1.3743 -1.9958,-1.0189 -2.11211,-1.2329 -1.74667,-3.2162 0.16936,-0.9192 0.308,-2.8549 0.308,-4.3027 0,-2.5887 0.0132,-2.6448 0.80719,-3.4054 0.77439,-0.7419 0.92483,-0.7774 3.69695,-0.8724 z m -2.81532,1.4248 c -1.17943,-0.035 -1.8365,0.4297 -2.39107,1.5462 -0.99457,2.0021 -1.52453,4.6046 -1.17512,5.7706 0.39889,1.3314 1.56631,2.396 3.27266,2.9855 0.77184,0.2665 1.62335,0.4935 1.89241,0.4935 0.76295,0.014 2.21789,-0.7692 2.64686,-1.4237 0.63738,-0.9729 1.22989,-3.3266 1.22989,-4.8861 0,-1.4115 -0.044,-1.5012 -1.33583,-2.7141 -1.03396,-0.9707 -1.66039,-1.3266 -2.7709,-1.5751 -0.52485,-0.1174 -0.97576,-0.1849 -1.3689,-0.1968 z m -0.0155,1.0665 c 0.9375,-0.021 2.15009,0.4718 3.20911,1.3565 l 1.29037,1.078 -0.15401,1.6475 c -0.16817,1.8008 -0.64723,3.1766 -1.3503,3.8799 -0.60571,0.6061 -2.42152,0.5876 -3.58532,-0.037 -1.30315,-0.6988 -1.97628,-1.7089 -1.92648,-2.8895 0.0679,-1.6092 1.08048,-4.5135 1.68672,-4.8382 0.23542,-0.1259 0.51741,-0.1902 0.82991,-0.1974 z m 0.95137,1.8124 c -0.19543,0.01 -0.40513,0.043 -0.62786,0.099 -1.58724,0.3985 -2.27216,3.3213 -1.06196,4.5315 1.35501,1.355 3.12439,0.4088 3.46334,-1.8515 0.27382,-1.8259 -0.4056,-2.8506 -1.77352,-2.7787 z m 0.0569,1.0465 c 0.74171,0 0.89152,0.5984 0.47438,1.8944 -0.19651,0.6106 -0.47615,1.1451 -0.62167,1.1869 -0.48011,0.1389 -1.19062,-0.4524 -1.19062,-0.9911 0,-0.8962 0.76419,-2.0902 1.33791,-2.0902 z m -38.59402,3.6581 c -0.61508,0.013 -1.21235,0.098 -1.65212,0.2656 -1.95646,0.7443 -3.31724,2.7033 -4.3434,6.2545 -2.34132,8.1023 -1.83507,14.6405 1.7012,21.9686 1.70299,3.529 3.1882,5.4766 6.14537,8.0611 2.96412,2.5903 4.34697,3.5377 6.14947,4.2122 2.04647,0.7657 10.12084,2.3521 14.28131,2.8064 3.31941,0.3625 4.9099,0.6532 10.07948,1.8444 0.87313,0.2011 2.18282,0.4461 2.91042,0.545 2.65928,0.3604 6.62181,1.4759 10.40919,2.9303 2.13309,0.8189 4.11644,1.6103 4.40748,1.7584 1.26465,0.6435 2.9161,2.2601 3.96152,3.8778 1.31877,2.041 2.16009,2.876 3.21427,3.1916 1.71394,0.5131 2.7591,0.1789 6.5319,-2.0878 2.33738,-1.4041 2.82877,-1.8098 2.82877,-2.3342 v -0.635 l -1.52136,0.8703 c -0.83674,0.4783 -2.34907,1.3803 -3.36103,2.0039 -1.46359,0.902 -2.08737,1.1338 -3.04995,1.1338 -1.55991,0 -2.11194,-0.4109 -3.68763,-2.7462 -1.98512,-2.9419 -3.31007,-3.9378 -7.14735,-5.3718 -0.95565,-0.3569 -2.74992,-1.0491 -3.98685,-1.5378 -2.07423,-0.8194 -3.63077,-1.2009 -11.37708,-2.7868 -1.52797,-0.313 -3.84969,-0.7887 -5.15938,-1.0573 -1.30969,-0.2691 -3.74996,-0.6218 -5.42343,-0.7834 -3.03731,-0.294 -9.42747,-1.4923 -12.15998,-2.2807 -2.74315,-0.7911 -5.03113,-2.2979 -8.56745,-5.6415 -4.73329,-4.4751 -7.95912,-13.2955 -7.445,-20.3583 0.34263,-4.7072 1.88494,-10.0161 3.38272,-11.6433 1.26204,-1.3711 3.79188,-1.791 5.01158,-0.8316 1.0496,0.8258 1.54572,2.4913 1.93323,6.4876 0.45953,4.7392 1.35067,11.5242 1.73736,13.2292 0.16499,0.7276 0.58833,2.2471 0.94049,3.3771 0.81777,2.6236 1.72029,3.546 4.94699,5.0538 2.70055,1.2621 3.37714,1.9495 4.00751,4.0722 0.65567,2.208 2.07129,3.1605 5.76451,3.8783 2.40276,0.467 4.65621,1.3438 8.78189,3.4179 7.18262,3.6107 12.31961,3.3829 16.22382,-0.7194 l 1.40664,-1.478 0.97461,0.4202 c 3.19932,1.3779 4.79108,1.4644 7.02541,0.3831 1.85438,-0.8977 4.22317,-3.4171 5.31439,-5.6526 1.72609,-3.5356 1.82261,-4.2068 1.8774,-13.0172 0.0406,-6.5225 0.12965,-8.241 0.50025,-9.6388 0.52028,-1.9621 1.41309,-3.8288 2.38175,-4.98 0.3719,-0.4421 0.67594,-1.1361 0.67594,-1.5425 v -0.739 l -0.82889,0.7774 c -1.27093,1.1909 -2.29349,2.9459 -3.07269,5.275 -0.70048,2.0939 -0.70831,2.2003 -0.73742,9.9219 -0.0336,8.9074 -0.24251,10.4065 -1.89084,13.5604 -1.67407,3.203 -4.18751,5.3004 -6.77736,5.6554 -0.91432,0.1255 -1.52574,-0.01 -3.10369,-0.6799 -1.08067,-0.4601 -2.20559,-0.7747 -2.5001,-0.6999 -0.29451,0.075 -1.31789,0.898 -2.27428,1.8288 -2.10952,2.0532 -3.64786,2.6758 -6.59598,2.6858 -2.69859,0.01 -3.88483,-0.3669 -9.26042,-2.9114 -2.86147,-1.3547 -5.38824,-2.3622 -6.61458,-2.6382 -5.08106,-1.1435 -5.81054,-1.5891 -6.36085,-3.883 -0.22918,-0.9554 -0.61114,-1.6243 -1.32136,-2.3135 -0.9925,-0.9631 -1.38758,-1.1968 -4.27209,-2.5255 -2.01737,-0.9292 -2.85496,-2.2206 -3.73364,-5.7579 -0.37137,-1.4949 -0.74039,-3.2538 -0.82011,-3.9086 -0.0796,-0.6549 -0.37835,-3.0361 -0.66402,-5.2917 -0.28567,-2.2556 -0.63508,-5.3139 -0.77618,-6.7964 -0.28131,-2.9551 -1.11541,-4.9895 -2.44689,-5.9682 -0.47456,-0.349 -1.54837,-0.5315 -2.57347,-0.5106 z m 0.64748,2.1627 c -0.80981,0 -2.48277,1.8441 -3.42355,3.7745 -1.45931,2.9941 -1.86891,5.1615 -1.70016,8.9911 0.24292,5.5131 0.96983,7.5629 5.19298,14.6383 2.418,4.0513 2.91944,4.6308 6.40787,7.4126 2.21249,1.7642 2.60146,1.9614 5.26118,2.6607 3.19344,0.84 4.49739,0.5019 4.49739,-1.1653 0,-0.8223 -0.39148,-1.5332 -1.61126,-2.9263 -0.55015,-0.6283 -1.07281,-1.4732 -1.16171,-1.878 -0.24447,-1.1131 -1.60665,-2.2458 -4.16459,-3.4618 -1.33763,-0.6358 -2.60681,-1.4504 -3.01892,-1.9378 -1.04955,-1.2409 -2.12852,-3.7486 -2.58125,-5.9997 -0.58941,-2.9305 -1.01047,-9.5017 -0.80513,-12.5672 0.14134,-2.11 0.0876,-2.9993 -0.2527,-4.1698 -0.45567,-1.5674 -1.86836,-3.3713 -2.64015,-3.3713 z m 0.0661,1.297 c 0.33549,0.025 0.62754,0.4458 1.07281,1.3308 0.40211,0.7991 0.4985,1.9167 0.62735,7.2941 0.30993,12.9344 1.72342,16.7211 7.16391,19.1878 2.09116,0.9483 3.48366,2.1206 3.68297,3.1012 0.0816,0.4014 0.69207,1.3642 1.35652,2.1399 0.66413,0.7755 1.20716,1.6391 1.20767,1.9188 -5.6e-4,0.6572 -1.01095,0.6448 -3.68557,-0.046 -2.53894,-0.6551 -3.9646,-1.6105 -7.27242,-4.8758 -1.39017,-1.3721 -4.9894,-7.1956 -6.48179,-10.487 -1.0101,-2.2278 -1.87428,-6.4484 -1.87428,-9.153 0,-3.6086 1.40767,-7.8483 3.2489,-9.7845 0.40603,-0.4268 0.693,-0.6464 0.95393,-0.6268 z m -0.11369,2.9678 c -0.25022,0.013 -0.51107,0.2006 -0.85524,0.567 -1.33853,1.4248 -2.17609,4.8985 -2.17609,9.0273 0,2.3659 0.79848,4.6816 3.40497,9.8796 2.72902,5.4422 5.50781,8.8651 8.416,10.3655 v 6e-4 c 1.67331,0.8636 2.44978,0.9961 2.94299,0.5029 0.86664,-0.8667 -0.0316,-2.582 -2.01023,-3.8385 -3.28292,-2.0847 -4.37684,-3.1091 -5.59448,-5.239 -2.53645,-4.4366 -3.61257,-8.9908 -3.34399,-14.1531 0.0946,-1.819 0.23956,-3.9391 0.32195,-4.712 0.11877,-1.1147 0.0538,-1.511 -0.3147,-1.9182 -0.30128,-0.3331 -0.54094,-0.4951 -0.79118,-0.4821 z m -0.0227,1.2795 c 0.10152,-0.03 0.1664,0.039 0.1664,0.2305 0,0.1201 -0.18608,1.5192 -0.41392,3.1088 -0.5122,3.5738 -0.33443,6.3051 0.67128,10.3024 0.67775,2.6937 2.31013,6.4505 3.6313,8.3582 0.62217,0.8982 3.31189,3.1173 4.91339,4.0534 1.16615,0.6816 2.04639,1.569 2.04639,2.0635 0,0.7932 -3.31197,-1.3084 -4.84777,-3.0763 -2.18477,-2.5149 -2.63565,-3.2118 -4.63743,-7.1692 -3.06803,-6.0653 -3.35114,-6.9318 -3.32643,-10.1864 0.0222,-2.9195 0.41948,-5.3396 1.1162,-6.8006 0.24075,-0.5049 0.51139,-0.8335 0.68059,-0.8843 z m 65.91535,3.0546 -0.5824,0.9861 c -1.41877,2.4006 -1.51077,3.0343 -1.44848,9.9942 0.0902,10.0668 -0.71856,13.4207 -4.05453,16.8155 -1.70074,1.7307 -3.97275,3.0012 -5.47047,3.0592 -0.48353,0.019 -2.19557,-0.057 -3.80442,-0.1686 -2.07084,-0.1431 -3.20794,-0.109 -3.89382,0.1175 -1.07334,0.3543 -3.36775,2.7027 -3.36775,3.4472 0,0.8351 1.00489,1.3899 3.3786,1.8662 2.37712,0.4767 5.23957,1.707 6.37119,2.7387 0.34184,0.3119 0.89614,1.1027 1.23198,1.7576 0.61402,1.1972 1.77453,2.4553 2.51198,2.7239 h 5.3e-4 c 1.30664,0.4754 3.26289,-0.034 5.59811,-1.4589 0.67794,-0.4136 1.77924,-0.9377 2.44739,-1.1653 0.87366,-0.2976 1.21492,-0.5561 1.21492,-0.9189 0,-0.8263 -0.86278,-0.608 -3.90417,0.9877 -4.26797,2.2395 -5.25542,2.1217 -6.91896,-0.8257 -0.42741,-0.7575 -1.17329,-1.7132 -1.65777,-2.1241 -1.39232,-1.1801 -4.48138,-2.4807 -6.71537,-2.8281 -1.25454,-0.195 -2.08105,-0.4562 -2.16884,-0.6848 -0.0811,-0.2114 0.32861,-0.8406 0.95755,-1.4697 l 1.09969,-1.0997 2.17919,0.024 c 1.19867,0.013 3.13751,0.073 4.30826,0.1322 2.03081,0.1032 2.22147,0.062 4.15065,-0.8903 1.48352,-0.7326 2.40549,-1.4221 3.46232,-2.59 3.38391,-3.7393 4.14911,-6.862 4.14911,-16.9381 0,-5.9671 0.0525,-6.7664 0.54311,-8.2227 0.29888,-0.8871 0.50723,-1.9849 0.46302,-2.4392 z m -13.03226,3.8365 c -0.19296,0 -1.51569,0.4051 -2.93936,0.9006 -2.25542,0.7851 -3.62672,1.0809 -7.64397,1.6481 -0.99907,0.1411 -1.782,1.1224 -1.52964,1.9177 0.0914,0.2879 0.81928,0.8919 1.61748,1.3425 0.81097,0.4578 1.6732,1.1957 1.9544,1.6722 1.62504,2.7551 2.287,3.6171 3.26234,4.2495 1.50616,0.9765 2.40778,0.9186 3.55481,-0.2284 l 0.93276,-0.9334 -0.18344,-2.3445 c -0.18206,-2.3273 -0.17764,-2.3519 0.59116,-3.2345 0.90136,-1.0345 1.64177,-2.3956 1.64177,-3.0179 0,-0.6381 -0.85106,-1.9719 -1.25831,-1.9719 z m -0.54882,1.2697 c 0.25098,-0.029 0.34816,0.065 0.45889,0.263 0.28588,0.5109 -0.1828,1.5383 -1.38441,3.034 -0.85619,1.0655 -0.95797,1.7481 -0.59997,4.0323 0.17926,1.1438 0.12965,1.4213 -0.36586,2.0505 -0.67707,0.8596 -0.92943,0.8885 -2.00919,0.2299 -0.95695,-0.5837 -1.69405,-1.4809 -2.84478,-3.4623 -0.46199,-0.7954 -1.25698,-1.7135 -1.7663,-2.0397 -1.86746,-1.1962 -2.02626,-1.3623 -1.5875,-1.6603 0.21828,-0.1481 0.93265,-0.2754 1.5875,-0.2754 1.50495,-0.01 5.05087,-0.8509 7.13083,-1.696 0.72539,-0.2947 1.1298,-0.4469 1.38079,-0.476 z m -2.83806,2.0257 c -0.32533,-0.011 -0.84854,0.056 -1.33532,0.1788 -1.18325,0.298 -1.95699,1.0264 -1.95699,1.8429 0,0.5794 1.01809,2.8964 1.5291,3.4803 0.22291,0.2545 0.50594,0.463 0.62892,0.463 0.50093,0 1.26275,-1.0911 1.4216,-2.0359 0.0931,-0.5538 0.28718,-1.3918 0.43098,-1.8625 0.30234,-0.9895 0.11404,-1.8063 -0.46767,-2.0293 -0.0558,-0.021 -0.14219,-0.034 -0.25062,-0.037 z m -0.52194,1.0914 c 0.30009,0 0.31086,0.2638 0.13023,0.8398 -0.12531,0.3995 -0.33105,1.1432 -0.45683,1.6526 l -0.22839,0.926 -0.41238,-0.7937 c -0.8708,-1.6754 -0.85968,-1.9619 0.0935,-2.3628 0.40968,-0.1722 0.69379,-0.2635 0.87384,-0.2619 z m -20.59927,0.5464 c -0.16155,-0.01 -0.28839,0.011 -0.36068,0.056 -0.14809,0.093 -0.62206,0.9498 -1.05317,1.9028 -0.85336,1.8865 -3.29248,4.7128 -5.0891,5.8973 -0.5873,0.3871 -1.51675,0.9991 -2.0655,1.3597 -1.26913,0.8337 -1.91307,1.9243 -1.91307,3.2417 0,1.7436 0.51025,2.0376 9.09143,5.2393 1.28934,0.4813 3.01574,1.3083 3.83646,1.8378 1.85766,1.198 4.49783,2.4564 5.7976,2.763 1.34506,0.3173 1.84946,0.3173 3.23493,5e-4 1.43234,-0.3275 2.70883,-1.1538 3.2825,-2.1248 0.84973,-1.4386 0.43902,-2.8983 -1.69863,-6.0338 -0.55427,-0.8131 -1.50286,-2.7282 -2.10735,-4.2561 -0.6045,-1.528 -1.38835,-3.0758 -1.74202,-3.4396 -0.35367,-0.3638 -1.74471,-1.1377 -3.09128,-1.7198 -2.3857,-1.0314 -2.46537,-1.0949 -3.1228,-2.4739 -0.37111,-0.7781 -0.88601,-1.5327 -1.14411,-1.6772 -0.5737,-0.3209 -1.37052,-0.5537 -1.85521,-0.573 z m 0.25064,1.1377 c 0.53248,8e-4 1.40851,0.5974 1.56477,1.3091 0.35804,1.6301 1.61034,2.6168 4.53253,3.5724 1.80014,0.5887 2.287,1.1719 3.53261,4.2334 0.58007,1.4255 1.70484,3.5628 2.4996,4.7495 0.79473,1.1864 1.52569,2.4871 1.6247,2.8903 0.28167,1.1467 -0.31568,2.2172 -1.57872,2.8287 -1.78866,0.8657 -3.85344,0.7384 -6.19135,-0.3818 -1.05717,-0.507 -2.44523,-1.2811 -3.08457,-1.7209 -0.63934,-0.44 -2.68806,-1.3811 -4.55269,-2.092 -8.65187,-3.2978 -8.26767,-3.0639 -7.88582,-4.8022 0.13729,-0.6252 0.64119,-1.1012 2.37712,-2.2442 3.3556,-2.2101 6.74841,-6.196 6.74841,-7.9283 0,-0.2913 0.17137,-0.4143 0.41341,-0.414 z m 0.67077,3.7703 c -0.51395,-0.01 -0.80748,0.1847 -1.49087,0.7808 -0.55928,0.4881 -1.49561,1.4041 -2.081,2.0362 -0.58539,0.6321 -1.74437,1.4928 -2.57556,1.9124 -2.8598,1.4436 -2.31661,2.6863 1.91204,4.3746 4.80594,1.9185 5.37157,2.2056 6.72308,3.4089 0.72761,0.648 2.09683,1.5944 3.04271,2.1037 2.29942,1.2385 3.9234,1.2928 5.04775,0.1686 0.42992,-0.43 0.77309,-1.0586 0.77309,-1.4153 0,-0.6451 -1.10041,-2.3775 -1.95956,-3.0853 -0.70625,-0.5816 -1.40211,-2.1243 -1.70998,-3.7899 -0.46437,-2.5119 -1.18353,-3.5232 -3.06234,-4.3082 -0.56322,-0.2352 -1.45169,-0.7705 -1.97456,-1.189 -0.52287,-0.4186 -1.43824,-0.8382 -2.03451,-0.9324 -0.24286,-0.038 -0.43897,-0.063 -0.61029,-0.065 z m 0.185,1.1184 c 0.0752,0.01 0.15266,0.018 0.23617,0.037 0.40917,0.092 1.04126,0.3974 1.40507,0.6789 0.3638,0.2813 1.25677,0.793 1.98437,1.1364 1.86362,0.8797 2.46428,1.6282 2.79054,3.4766 0.40637,2.3027 0.95927,3.5565 2.09237,4.7456 1.48982,1.5634 1.74842,2.1749 1.18288,2.7998 -0.9833,1.0864 -3.35889,0.3117 -6.3345,-2.0667 -2.37966,-1.9018 -2.85268,-2.1574 -6.31899,-3.4173 -1.75816,-0.639 -3.42752,-1.3931 -3.70986,-1.6754 -0.50805,-0.508 -0.49993,-0.5191 0.79116,-1.0633 0.89752,-0.3786 1.93929,-1.2102 3.33883,-2.666 1.59819,-1.6621 2.01517,-2.0224 2.54196,-1.9859 z m -48.34123,1.1895 c -0.61044,0.019 -1.3421,0.9094 -2.36111,2.6051 -0.59187,0.9848 -0.83553,1.7214 -0.83355,2.5136 l 0.003,1.1202 1.38543,-2.3611 c 0.76211,-1.2986 1.52795,-2.4075 1.7017,-2.4644 0.18769,-0.061 0.42844,0.3599 0.59325,1.0383 1.17118,4.8201 2.05057,7.5165 3.32692,10.2018 1.75162,3.6851 4.49167,7.8859 5.9676,9.1493 1.10098,0.9424 6.72105,3.6412 10.3632,4.9765 1.19674,0.4387 3.3166,0.9168 5.10614,1.1512 3.28943,0.4313 4.10303,0.7289 5.18263,1.8987 1.04712,1.1345 1.44563,1.8687 2.31717,4.268 0.96176,2.6476 1.91423,3.9827 4.94699,6.9344 2.18573,2.1275 4.34547,4.9673 4.34547,5.714 0,0.6495 -0.68842,0.762 -5.68855,0.9276 -4.27447,0.1413 -5.41758,0.2712 -7.63674,0.8702 -5.74487,1.5502 -10.38183,3.5904 -12.17237,5.3557 -2.42128,2.3871 -3.24967,5.865 -1.9322,8.1132 0.37206,0.635 0.87064,1.3158 1.10794,1.5126 0.23731,0.1969 0.64572,0.7826 0.90744,1.3018 1.0023,1.9875 1.0023,1.9872 -0.96789,4.0595 -0.9991,1.0512 -1.97488,2.1193 -2.16885,2.3741 -0.31252,0.4101 -0.28046,0.463 0.28163,0.463 0.79658,0 4.34596,-3.5118 4.59869,-4.5501 0.26125,-1.0731 -0.29562,-2.4032 -1.88412,-4.5 -1.25394,-1.6552 -1.43076,-2.0405 -1.42576,-3.1006 0.0115,-2.3871 1.97101,-5.2039 4.53408,-6.517 1.90704,-0.9768 6.41271,-2.6048 9.48264,-3.4261 2.39424,-0.6405 3.45631,-0.7649 7.6853,-0.9001 5.61973,-0.1796 6.33762,-0.4008 6.33762,-1.9518 0,-1.247 -1.89516,-3.9137 -4.76097,-6.6993 -2.72944,-2.6532 -3.74539,-4.0457 -4.39094,-6.0184 -1.04376,-3.1893 -2.56855,-5.3526 -4.44831,-6.3117 -0.66783,-0.3408 -2.16424,-0.6855 -3.90414,-0.8996 -1.55157,-0.191 -3.56899,-0.5995 -4.48344,-0.9075 -3.13291,-1.0554 -9.48076,-4.0267 -10.54045,-4.9337 -1.33731,-1.1446 -3.55496,-4.4669 -5.26634,-7.8893 -1.70783,-3.4153 -2.28598,-4.9898 -3.20344,-8.7254 -0.7366,-2.9994 -1.32096,-4.4167 -2.1058,-4.3927 z m 49.22129,0.5676 c -0.60659,0.018 -1.25079,0.3061 -2.13839,0.8432 -1.66188,1.0054 -2.00179,1.46 -1.773,2.3715 0.12377,0.4931 0.66969,0.93 2.08925,1.6705 1.08702,0.5673 2.89883,1.887 4.17082,3.0382 1.23692,1.1192 2.42755,2.103 2.64583,2.1858 0.62635,0.2381 0.73059,0.2183 1.17202,-0.2231 0.69626,-0.6964 0.46747,-1.5695 -0.81441,-3.1104 -0.44969,-0.5406 -0.62219,-1.0769 -0.62219,-1.9354 0,-1.5558 -0.23887,-1.9506 -2.13786,-3.5309 -1.09458,-0.911 -1.81219,-1.333 -2.59207,-1.3094 z m 0.10025,1.0416 c 0.66757,0 1.90473,0.8732 2.88094,2.0336 0.52184,0.6202 0.66561,1.016 0.54467,1.4981 -0.19645,0.7826 0.60727,2.7236 1.43042,3.4544 0.31215,0.2773 0.5674,0.6048 0.5674,0.7276 0,0.4744 -0.4671,0.1574 -2.48254,-1.683 -1.16697,-1.0658 -2.90898,-2.3278 -3.95427,-2.8655 -1.02759,-0.5286 -1.91358,-1.0972 -1.96887,-1.2631 -0.12896,-0.3865 2.24694,-1.9021 2.98225,-1.9021 z m -50.26052,5.347 c -0.2677,0.022 -0.77515,0.2439 -1.21438,0.539 -0.72903,0.4897 -0.92951,0.8141 -0.99581,1.6113 l -0.0832,0.9977 0.90226,-0.9842 c 0.5425,-0.5922 1.0555,-0.9258 1.28675,-0.8367 0.2115,0.081 0.81597,1.3989 1.34307,2.929 0.68832,1.9979 1.6387,3.9026 3.37344,6.7598 2.51706,4.1458 3.42368,5.1724 5.50714,6.2331 0.68586,0.3495 2.06502,1.2406 3.06443,1.9804 1.98713,1.4711 3.05748,1.8555 7.44295,2.6747 3.16187,0.5905 5.16982,1.4282 7.60626,3.1728 1.37555,0.9851 1.64994,1.3592 2.97344,4.05 0.97507,1.9823 2.07217,3.6997 3.31092,5.1843 1.01891,1.221 1.85261,2.3817 1.85261,2.5797 0,0.6947 -1.02065,1.3798 -2.2965,1.5414 -9.77014,1.238 -13.13312,2.6705 -20.19361,8.6027 -2.32577,1.9539 -3.7369,2.8038 -6.1681,3.7134 -0.77949,0.2916 -1.66923,0.7988 -1.97712,1.1263 -0.85977,0.9152 -1.68656,3.0144 -1.83505,4.6604 -0.15782,1.7492 0.46077,5.3213 1.21801,7.0332 0.39346,0.8895 0.67876,1.1988 1.10329,1.1988 0.44145,0 0.52863,-0.1058 0.38139,-0.463 -1.98612,-4.817 -2.12719,-8.7458 -0.39896,-11.1316 0.61719,-0.8519 1.09405,-1.1607 2.52751,-1.6378 1.94424,-0.6469 3.37217,-1.593 7.78349,-5.1562 3.56319,-2.8778 5.2224,-3.8488 8.34628,-4.8834 2.94166,-0.9742 4.23606,-1.2607 7.86257,-1.7388 3.01641,-0.3979 3.90427,-0.7731 4.39973,-1.8606 0.55906,-1.2268 0.33948,-1.7938 -1.58028,-4.0849 -1.25039,-1.4919 -2.27383,-3.0779 -3.04115,-4.7125 -1.53402,-3.2673 -2.11923,-3.9793 -4.5961,-5.5887 -2.51206,-1.632 -3.89356,-2.1318 -8.07186,-2.9181 -3.36311,-0.6329 -4.63777,-1.1412 -6.35,-2.5337 -0.58211,-0.4733 -1.86856,-1.3041 -2.85874,-1.8465 -2.13267,-1.1674 -2.52341,-1.6272 -5.33662,-6.2791 -1.41708,-2.3434 -2.40869,-4.3463 -2.90163,-5.8616 -0.79859,-2.4551 -1.63452,-3.9417 -2.28722,-4.0674 -0.0275,-0.01 -0.061,-0.01 -0.0992,0 z m 85.83147,1.6645 -0.93379,1.7502 c -2.76112,5.1755 -6.88399,7.2763 -12.85865,6.5522 -2.34053,-0.2837 -2.67139,-0.2718 -3.05461,0.1116 -0.34817,0.3482 -0.3728,0.5543 -0.13073,1.0856 0.2314,0.508 0.76393,0.8025 2.36212,1.307 1.1348,0.3583 2.65824,0.7303 3.38584,0.8263 2.96403,0.3921 2.82581,0.3043 2.62208,1.6629 -0.14999,1.0002 -0.0972,1.2714 0.30281,1.5637 0.26617,0.1948 0.97941,0.354 1.58491,0.354 1.43838,0 2.74508,-0.8757 3.4303,-2.2984 0.66355,-1.378 1.5436,-2.3278 2.53783,-2.7395 0.54499,-0.2257 0.7674,-0.5019 0.7674,-0.952 v -0.6339 l -1.25678,0.6398 c -1.50029,0.7635 -2.28139,1.5525 -2.82516,2.854 -0.50073,1.1983 -1.57652,2.0717 -2.55281,2.0717 -0.90768,0 -1.15628,-0.3432 -0.77102,-1.0631 0.70906,-1.3248 -0.38015,-2.1177 -3.57444,-2.6027 -1.01868,-0.1548 -2.56649,-0.5228 -3.43959,-0.8181 -1.02282,-0.3458 -1.25812,-0.4858 -0.66145,-0.394 5.60966,0.866 9.72417,-0.2582 12.62194,-3.4483 1.80938,-1.9918 2.46155,-3.2401 2.45155,-4.6942 z m -88.09127,4.0674 v 0.6583 c 0,0.4964 0.27003,0.8096 1.09709,1.2735 0.93628,0.5252 1.30411,1.0212 2.51614,3.393 2.03477,3.9817 2.96918,5.0858 6.17635,7.294 3.81325,2.6257 4.20291,2.958 5.07307,4.3302 1.1434,1.8028 1.36035,2.9369 1.42213,7.4258 0.068,4.9389 0.37,5.951 2.13683,7.1665 1.77567,1.2216 1.64552,1.9137 -0.74567,3.9719 -1.04696,0.9009 -2.48486,2.3342 -3.19516,3.1843 -0.8699,1.0411 -2.26899,2.1883 -4.28657,3.515 -3.2262,2.1214 -3.95899,2.8897 -5.06997,5.3165 -0.58696,1.2819 -0.74007,2.0584 -0.83768,4.254 -0.10326,2.3217 0.16952,5.2255 0.63768,6.7892 0.0762,0.2545 0.38375,0.463 0.68318,0.463 0.47495,0 0.52123,-0.1098 0.36327,-0.8599 -1.13673,-5.3991 -0.82322,-8.9329 1.04336,-11.7573 0.71088,-1.0758 1.58017,-1.8201 4.01629,-3.4396 2.21361,-1.4719 3.4916,-2.5357 4.43953,-3.6949 0.73213,-0.8953 2.08221,-2.2452 2.99982,-2.9988 2.8726,-2.3598 3.10642,-3.8282 0.86505,-5.4385 -0.70988,-0.5101 -1.38059,-1.1332 -1.48984,-1.3843 -0.10925,-0.2513 -0.28271,-2.6 -0.38603,-5.2194 -0.28525,-7.2332 -0.84711,-8.305 -6.32208,-12.0618 -3.84157,-2.6358 -4.55364,-3.4275 -6.38877,-7.103 -1.55217,-3.1086 -1.86594,-3.509 -3.40547,-4.3469 z m 0.19171,5.166 c -0.086,0.023 -0.1149,0.1553 -0.14573,0.3728 -0.0579,0.4085 0.2377,0.9774 0.89297,1.7198 0.53861,0.6101 1.35123,1.6997 1.8061,2.4215 0.88807,1.4094 3.35904,3.6152 6.45284,5.7602 2.11236,1.4648 3.55169,3.2033 4.0013,4.8334 0.16803,0.6094 0.29268,3.3303 0.29353,6.4125 8.9e-4,3.2567 0.12274,5.8086 0.31159,6.5148 0.53489,2 0.26525,2.3805 -4.43952,6.255 -4.83727,3.9839 -6.67051,6.4352 -7.36285,9.8449 -0.42402,2.0884 -0.54634,6.3156 -0.24598,8.5069 0.14234,1.0385 0.25826,1.2274 0.75189,1.2274 0.54883,0 0.57129,-0.075 0.37674,-1.2568 -0.54578,-3.3157 -0.0276,-8.7347 1.03455,-10.8169 0.81933,-1.6061 2.54973,-3.677 4.11758,-4.9284 3.64381,-2.9083 5.98209,-5.0208 6.52002,-5.891 0.49789,-0.8056 0.55978,-1.1655 0.40203,-2.3254 -0.10263,-0.7549 -0.23968,-3.9915 -0.30488,-7.193 -0.0653,-3.2014 -0.23265,-6.2444 -0.37155,-6.7625 -0.4259,-1.5877 -1.86677,-3.4522 -3.65406,-4.7278 -3.78182,-2.6985 -6.39257,-5.0498 -7.20524,-6.49 -0.44169,-0.7826 -1.36284,-1.9388 -2.04689,-2.5693 -0.73843,-0.6805 -1.04101,-0.9459 -1.18444,-0.9081 z m -0.0878,5.3025 c -0.0698,0 -0.0912,0.2236 -0.0956,0.7184 -0.008,0.9109 0.1415,1.0853 2.5714,3.0004 1.41883,1.1183 3.25038,2.3743 4.06953,2.791 1.99928,1.0171 3.59397,3.0708 4.05816,5.2256 0.37877,1.7584 -0.69054,11.0016 -1.4604,12.6224 -0.86934,1.8304 -3.53245,4.5181 -5.50145,5.5526 -2.77995,1.4608 -3.74552,2.3656 -3.74552,3.51 v 0.9543 l 0.90022,-1.0515 c 0.51654,-0.6035 1.82086,-1.547 3.06077,-2.2142 2.07563,-1.1174 3.84546,-2.7131 5.68908,-5.1301 0.91717,-1.2025 1.60636,-4.2743 1.9673,-8.7648 0.41694,-5.1869 0.39037,-5.6057 -0.47127,-7.4269 -1.01097,-2.137 -2.15982,-3.3946 -3.82148,-4.1817 -1.47035,-0.6964 -6.5849,-4.612 -7.03575,-5.3861 -0.0836,-0.1437 -0.14309,-0.2207 -0.185,-0.2194 z m 43.07851,1.4899 c -0.89313,0.01 -1.36806,0.2294 -1.85261,0.6374 -1.0854,0.9131 -1.47717,1.9907 -1.25728,3.457 0.24427,1.6288 2.84245,6.7535 4.0871,8.0622 1.17959,1.2401 1.83409,1.3173 3.33311,0.3926 2.3666,-1.46 3.9432,-2.0563 6.40477,-2.4225 4.27466,-0.6361 6.01904,-1.914 6.02703,-4.4138 0.003,-1.0713 -0.11504,-1.3817 -0.72605,-1.9074 -0.77366,-0.6654 -4.02849,-1.7947 -6.0172,-2.0876 -0.65485,-0.096 -2.26219,-0.4003 -3.57188,-0.6754 -3.43926,-0.7229 -5.27867,-1.0557 -6.42699,-1.0425 z m 0.0666,1.0806 c 0.18261,0 0.39478,0.024 0.65423,0.057 2.25833,0.2918 4.34459,0.6622 5.95366,1.0567 0.88278,0.2167 2.60601,0.5911 3.82973,0.8321 2.89476,0.5702 4.92276,1.4621 5.13043,2.2561 0.0867,0.3316 -0.002,0.9835 -0.19637,1.4492 -0.47813,1.1443 -2.11849,1.9021 -4.92477,2.2746 -2.59384,0.3445 -4.19981,0.8956 -5.83115,2.0016 -0.64117,0.4347 -1.3866,0.8704 -1.65677,0.9694 -0.74168,0.2707 -1.9458,-1.2137 -3.56978,-4.4014 -1.75303,-3.4409 -1.9285,-4.8871 -0.71935,-5.9271 0.49993,-0.4303 0.78234,-0.5779 1.33014,-0.5686 z m -43.0661,0.8683 c -0.12509,0 -0.1824,0.1707 -0.1824,0.5109 0,0.5184 0.32641,0.8568 1.53942,1.5939 1.24995,0.7591 1.67323,1.2073 2.24896,2.3831 0.90231,1.8428 0.89159,2.7718 -0.0635,5.4959 -1.35615,3.8674 -1.60925,6.3045 -1.0418,10.033 0.16806,1.1044 0.2231,2.3379 0.12195,2.7408 -0.10113,0.403 -0.77362,1.356 -1.49448,2.1183 -0.94522,0.9993 -1.31103,1.5975 -1.31103,2.1455 h 5.3e-4 c 0,0.7472 0.0268,0.7332 1.58231,-0.8059 2.23684,-2.2135 2.51195,-2.898 2.22882,-5.5436 -0.45696,-4.269 -0.26249,-6.6572 0.79013,-9.7057 1.21608,-3.5219 1.24426,-4.8617 0.1483,-7.0548 -0.791,-1.583 -1.2841,-2.0143 -4.41883,-3.863 -0.0571,-0.034 -0.10663,-0.05 -0.14833,-0.048 z m 66.33445,0.1633 c -1.63536,-0.042 -2.41876,1.284 -1.56218,3.334 1.27072,3.0414 -0.56604,5.5242 -4.9604,6.7056 -3.56344,0.958 -4.4323,1.605 -4.4323,3.2996 0,1.0877 0.50273,2.0738 2.49856,4.9046 1.15589,1.6393 1.24328,3.6245 0.2563,5.824 -1.23433,2.7503 -0.91003,3.9254 1.47434,5.3443 2.40112,1.4288 3.8753,3.3653 4.93821,6.4857 0.57335,1.6836 0.72303,2.6903 0.82786,5.5616 0.12483,3.4197 0.14255,3.5057 0.72242,3.5057 0.53739,0 0.58602,-0.1079 0.50281,-1.1245 -0.0506,-0.6183 -0.14714,-2.3151 -0.21394,-3.7703 -0.12314,-2.681 -0.69869,-4.9593 -1.79782,-7.1138 -0.66723,-1.3079 -2.64774,-3.4346 -3.88866,-4.1759 -2.37069,-1.4164 -2.62327,-2.2117 -1.43867,-4.5279 0.53221,-1.0406 0.70593,-1.7711 0.70694,-2.9678 0.002,-1.7915 -0.35669,-2.6403 -2.10013,-4.975 -1.25836,-1.6851 -1.69474,-3.1183 -1.1498,-3.7748 0.43034,-0.5185 1.57048,-0.9951 3.42461,-1.4314 3.16021,-0.744 5.43007,-2.5603 6.07404,-4.8604 0.27535,-0.9831 0.24346,-1.3432 -0.24805,-2.8022 -0.62206,-1.8467 -0.56203,-2.3968 0.26149,-2.3968 1.42589,0 3.18232,1.4668 6.48332,5.4147 1.85288,2.2159 2.44136,2.6966 4.09795,3.3485 1.04947,0.4131 2.05279,0.5771 3.59925,0.5882 2.05444,0.014 2.25402,-0.04 4.7625,-1.2951 2.27484,-1.138 2.62925,-1.4052 2.70217,-2.0392 l 0.0837,-0.7297 -1.55908,0.9136 c -2.58024,1.5124 -4.1029,1.9984 -6.22493,1.9984 -2.68232,0 -4.13848,-0.7278 -6.16088,-3.0644 -3.03493,-3.5062 -4.69437,-5.1279 -5.78932,-5.6581 -0.70525,-0.3413 -1.34519,-0.5075 -1.89032,-0.5212 z m -21.33512,0.8292 c -1.24989,-0.01 -2.05505,0.5762 -2.05465,1.6041 3.2e-4,0.8991 1.44867,3.7759 2.14767,4.2654 0.80688,0.5651 2.03838,0.5379 4.46638,-0.098 1.09141,-0.2857 2.7404,-0.599 3.66438,-0.6961 2.13166,-0.2238 3.28567,-1.0639 3.16312,-2.3032 -0.13618,-1.3769 -1.24384,-1.797 -5.4586,-2.0706 -1.98972,-0.1291 -4.03404,-0.3503 -4.54337,-0.4916 -0.50212,-0.1392 -0.96829,-0.2072 -1.38493,-0.2098 z m 0.15502,1.1157 c 0.31038,0 0.69328,0.044 1.14876,0.1458 0.8186,0.1831 2.86819,0.4257 4.55478,0.539 3.05684,0.2053 4.52168,0.5447 4.52168,1.0475 0,0.5074 -1.20108,1.013 -2.81223,1.1834 -0.89189,0.094 -2.43912,0.4051 -3.43855,0.6909 -2.67627,0.7654 -3.14246,0.7069 -3.93722,-0.494 -1.36583,-2.064 -1.38223,-3.0914 -0.0372,-3.1126 z m -23.45902,1.1092 c -1.63883,-0.048 -2.37972,1.2086 -2.97759,4.5294 -0.59865,3.3247 -0.41828,4.3942 1.1875,7.0527 0.71776,1.1882 1.44759,2.7278 1.62213,3.4211 0.17801,0.7069 0.56076,1.4306 0.87178,1.6483 v 0 c 0.675,0.4762 0.53184,0.4762 2.74661,0.01 0.99833,-0.2101 2.80083,-0.5054 4.00545,-0.6564 3.10306,-0.389 4.24355,-0.7488 5.10355,-1.6087 1.27685,-1.2769 0.99967,-2.3249 -1.50326,-5.6772 -0.76488,-1.0244 -1.69243,-2.4656 -2.06087,-3.2022 -1.18353,-2.3673 -3.76401,-4.1355 -7.70752,-5.2819 -0.48313,-0.1405 -0.90961,-0.2212 -1.28778,-0.232 z m -21.64935,0.1561 c -0.17033,-0.01 -0.22891,0.2037 -0.22891,0.6122 0,0.3638 0.10975,0.6615 0.24339,0.6615 0.45876,0 1.34411,1.7825 1.34411,2.7059 0,0.508 -0.35542,1.625 -0.79013,2.4823 -0.62672,1.2359 -0.78732,1.8873 -0.77465,3.1461 l 0.016,1.5875 0.48006,-1.3229 c 0.26405,-0.7276 0.851,-2.0968 1.30381,-3.0427 0.5996,-1.2525 0.82304,-2.0989 0.8232,-3.1149 1.9e-4,-1.2671 -0.10004,-1.5036 -1.09191,-2.5797 -0.70196,-0.7617 -1.10596,-1.1274 -1.32501,-1.1353 z m 21.33825,1.0265 c 0.16976,3e-4 0.38047,0.016 0.64749,0.042 0.66077,0.064 2.213,0.5911 3.44993,1.1719 2.44337,1.1475 3.53634,2.1658 4.62039,4.3053 0.35777,0.7059 1.25299,2.0698 1.98954,3.0308 2.8576,3.7282 2.48517,4.2841 -3.49539,5.2173 -6.21292,0.9694 -5.69621,0.98 -5.90195,-0.117 -0.0979,-0.5217 -0.85021,-2.1143 -1.67175,-3.5382 -1.39977,-2.4263 -1.49116,-2.6906 -1.45364,-4.2069 0.0435,-1.7616 0.51064,-4.332 0.97099,-5.3425 0.19354,-0.4244 0.33515,-0.5633 0.84439,-0.5628 z m 48.09215,1.6238 c -0.36012,0 -0.67445,0.1693 -0.99631,0.4717 -0.33801,0.3175 -0.69311,1.0139 -0.7891,1.5473 -0.28276,1.5701 -1.17472,3.1618 -2.0774,3.7068 -0.46262,0.2794 -1.43661,0.5877 -2.16421,0.6858 -4.13835,0.5559 -5.06265,2.2143 -3.14555,5.6425 0.89011,1.5915 0.94427,1.8183 0.79996,3.3325 -0.0852,0.894 -0.23016,2.0725 -0.32247,2.6191 -0.3293,1.9494 0.0314,2.7366 2.19213,4.781 4.03476,3.8177 5.0184,6.3283 4.77697,12.1931 -0.0784,1.9047 -0.0858,3.6123 -0.0165,3.7941 0.0695,0.1815 0.33552,0.3302 0.59169,0.3302 0.41119,0 0.48614,-0.3858 0.63201,-3.2639 0.32853,-6.4823 -0.79293,-9.6174 -4.81367,-13.4607 -1.17385,-1.1221 -2.21226,-2.3513 -2.30786,-2.7321 -0.0956,-0.381 0.0266,-1.6195 0.27128,-2.7522 0.51451,-2.3812 0.42172,-2.9816 -0.80563,-5.2183 -1.01359,-1.8474 -1.09199,-2.4342 -0.43201,-3.2465 0.34092,-0.4194 0.94395,-0.6376 2.28669,-0.8273 3.15359,-0.4451 4.67675,-1.7701 5.45703,-4.7469 0.61963,-2.3641 0.96298,-2.2953 3.96409,0.7895 2.76715,2.8445 5.03553,3.973 7.98505,3.973 1.1512,0 3.27874,-0.1966 4.72736,-0.4371 2.22671,-0.3699 2.63343,-0.513 2.63343,-0.9261 0,-0.6077 -0.38521,-0.6143 -3.62615,-0.062 -5.20453,0.8874 -7.43066,0.1688 -11.20343,-3.6148 -1.80991,-1.815 -2.82506,-2.5876 -3.61736,-2.5786 z m -46.16823,0.5519 c -1.05749,0.058 -1.68278,0.7591 -2.01176,2.2236 -0.29773,1.3255 -0.0715,2.6913 0.88985,5.3729 0.82357,2.2971 1.02867,2.5979 2.10479,3.0877 0.5439,0.2471 1.60366,0.336 3.36621,0.2809 2.10426,-0.065 2.70616,-0.1793 3.30729,-0.6262 1.14763,-0.853 1.09331,-1.8174 -0.2005,-3.5388 -0.60068,-0.7991 -1.33421,-1.9288 -1.62989,-2.5109 -1.27304,-2.5062 -3.20606,-4.0521 -5.34593,-4.2752 -0.16909,-0.018 -0.32901,-0.022 -0.48006,-0.014 z m 0.0233,0.9874 c 0.58856,0.01 2.6919,0.9822 3.29022,1.5235 0.2684,0.2429 0.92136,1.2182 1.45056,2.168 0.52922,0.9496 1.35808,2.2482 1.84226,2.8856 0.48419,0.6373 0.83714,1.2919 0.78394,1.4552 -0.0532,0.1629 -0.50464,0.4386 -1.00304,0.6122 v -5e-4 c -1.19737,0.4178 -4.17748,0.4233 -4.99454,0.01 -0.78832,-0.3992 -2.0992,-3.6054 -2.31923,-5.6737 -0.16706,-1.57 0.28527,-2.99 0.94983,-2.9803 z m -15.09419,1.582 c -0.61666,0 -0.90789,0.2349 -1.55596,1.2568 -1.2259,1.9325 -1.572,3.4737 -1.572,6.9934 0,2.811 0.0551,3.1822 0.54827,3.6751 0.48879,0.4889 0.61132,0.5082 1.12448,0.1778 0.87895,-0.566 1.41192,-1.8796 2.173,-5.3562 1.00425,-4.5874 1.08717,-5.5907 0.51316,-6.2249 -0.26086,-0.2884 -0.81193,-0.522 -1.23095,-0.522 z m 17.00154,0.2646 c -1.0019,0 -1.38842,0.5331 -1.40972,1.9447 -0.0215,1.4242 0.67722,2.7172 1.92132,3.5557 1.10514,0.7448 1.84102,0.6702 2.34871,-0.2371 0.34893,-0.6239 0.32969,-0.8411 -0.2036,-2.2672 -0.73504,-1.9653 -1.64928,-2.9961 -2.65671,-2.9961 z m -16.862,0.8196 c 0.1401,0.02 0.25699,0.1527 0.35087,0.3975 0.1385,0.3608 -0.69514,4.6635 -1.50842,7.784 -0.13348,0.512 -0.42418,1.1668 -0.64595,1.4552 -0.36621,0.4757 -0.39294,0.2281 -0.28837,-2.6966 0.12454,-3.4827 0.37761,-4.7707 1.19837,-6.1061 0.36243,-0.5897 0.66001,-0.8678 0.8935,-0.834 z m 16.89095,0.2578 c 0.25797,-0.049 0.65873,0.4275 1.14205,1.4155 0.3861,0.789 0.66243,1.7034 0.61444,2.0314 -0.0838,0.5731 -0.12584,0.5599 -1.07953,-0.3415 -0.8351,-0.7896 -0.99166,-1.1113 -0.99166,-2.0315 0,-0.6802 0.11406,-1.0358 0.3147,-1.0739 z m 45.12127,0.7916 c -0.1533,0 -0.31472,0.013 -0.48678,0.03 -0.76091,0.073 -0.99711,0.2723 -1.56115,1.3182 -1.01803,1.888 -1.52789,2.3394 -2.64377,2.3394 -1.93193,0 -3.17396,0.7776 -3.17396,1.9886 0,0.2397 0.36708,1.2716 0.81544,2.2934 0.76819,1.7503 0.80465,1.9826 0.63461,4.0241 -0.22871,2.7456 0.16356,3.7973 2.0593,5.5221 1.16819,1.0628 1.50995,1.2396 2.17919,1.125 1.09352,-0.1873 1.98437,-1.2684 1.98437,-2.4088 0,-0.5058 0.17259,-1.3329 0.38344,-1.8375 0.33319,-0.7974 0.50379,-0.9173 1.30278,-0.9173 0.50564,0 1.50818,0.1357 2.22776,0.3019 1.53964,0.3553 2.48317,0.1738 3.22255,-0.6197 0.60301,-0.6474 0.71194,-2.1105 0.24545,-3.3033 -0.16025,-0.4096 -0.56229,-1.6637 -0.89297,-2.7863 -0.69974,-2.376 -1.81414,-4.2315 -3.44474,-5.7346 -1.10458,-1.0181 -1.77829,-1.3547 -2.85152,-1.3348 z m -0.0207,1.0155 c 0.50313,-0.023 1.12794,0.314 1.93839,1.0078 1.6615,1.4221 2.53582,2.9718 3.60132,6.3851 1.35075,4.327 1.07522,4.8784 -2.07171,4.1484 -1.88794,-0.4376 -3.1409,-0.3185 -3.72121,0.3546 -0.50967,0.5913 -0.97721,2.0579 -0.97721,3.0654 0,0.4586 -0.14266,0.9764 -0.31729,1.151 -0.52615,0.5262 -1.19928,0.3635 -2.22623,-0.5379 -1.42991,-1.2557 -1.72355,-2.1688 -1.53117,-4.7625 0.16415,-2.2133 0.054,-2.7721 -1.03198,-5.2438 -0.22741,-0.517 -0.3256,-1.0808 -0.2191,-1.2531 0.10649,-0.1722 0.93287,-0.4148 1.83658,-0.5384 1.90714,-0.2609 2.76328,-0.9006 3.51192,-2.6262 0.32324,-0.7451 0.70456,-1.1277 1.20769,-1.1504 z m 17.31367,2.4733 c -0.06,0 -0.13335,0.025 -0.22169,0.06 -0.25467,0.1003 -1.65365,0.2961 -3.10886,0.4345 -1.45521,0.1386 -3.07615,0.3667 -3.60235,0.5075 -1.10713,0.296 -2.28971,1.3758 -2.52233,2.3026 -0.25966,1.0345 0.0849,2.9956 0.81545,4.64 0.98067,2.2077 0.91418,3.4483 -0.24702,4.6096 -0.83285,0.8332 -1.03952,0.9141 -2.05052,0.8006 -0.61836,-0.07 -1.61425,-0.3138 -2.21329,-0.5426 -3.21466,-1.2282 -4.61113,1.833 -2.87581,6.3039 1.00933,2.6004 0.96565,3.9317 -0.23098,7.0906 -0.54023,1.4258 -1.05201,2.944 -1.13792,3.3734 -0.12954,0.6477 -0.0698,0.7808 0.35192,0.7808 0.38716,0 0.64214,-0.3939 1.07021,-1.6536 0.30909,-0.9094 0.88268,-2.5435 1.27434,-3.6309 0.84426,-2.3434 0.77407,-3.8687 -0.29353,-6.4053 -0.74009,-1.7584 -0.92395,-3.9219 -0.38859,-4.567 0.43101,-0.5194 1.34633,-0.5246 2.56625,-0.015 0.52242,0.2183 1.53077,0.3969 2.24017,0.3969 1.10982,0 1.43701,-0.1336 2.34611,-0.9549 1.84513,-1.6668 1.93572,-3.0543 0.42892,-6.5857 -0.82058,-1.923 -0.86471,-3.0144 -0.15711,-3.914 0.67839,-0.8625 1.66804,-1.1583 4.58422,-1.3711 2.85171,-0.2077 3.61374,-0.4648 3.61374,-1.2189 0,-0.3225 -0.0614,-0.4545 -0.24133,-0.4413 z m -17.11936,0.2434 c -0.46125,0.034 -0.86368,0.2937 -1.21801,0.7763 -0.33179,0.4516 -1.10482,1.0578 -1.71773,1.347 -1.32866,0.6273 -1.56202,1.1996 -1.12551,2.7585 0.25527,0.9118 0.25858,1.5896 0.0155,3.0964 -0.30014,1.8606 -0.23106,2.5837 0.31367,3.2878 0.67945,0.8781 2.21377,-0.039 2.44895,-1.4629 0.0894,-0.5416 0.34693,-1.6037 0.57206,-2.3606 l 0.40928,-1.3761 1.62161,0.1481 c 1.40094,0.1281 1.72006,0.07 2.34868,-0.4289 1.19996,-0.9519 0.94789,-2.1963 -0.82476,-4.0669 -1.14327,-1.2065 -2.07502,-1.7756 -2.84374,-1.7187 z m 0.19378,1.0134 c 0.40558,0 2.36897,1.9137 2.78122,2.7109 0.30864,0.5969 0.32684,0.8498 0.0827,1.144 -0.35264,0.425 -1.49267,0.4948 -2.41432,0.1474 -1.05577,-0.3979 -1.70752,0.076 -2.30682,1.678 -0.30523,0.8157 -0.55502,1.8129 -0.55502,2.2164 h 5.3e-4 c 0,0.4032 -0.17039,0.9644 -0.37828,1.247 -0.62674,0.8514 -0.74713,-0.059 -0.29352,-2.2151 0.35597,-1.6933 0.35679,-2.037 0.009,-3.0303 -0.37322,-1.0649 -0.36513,-1.143 0.16433,-1.5832 0.30631,-0.2546 0.71631,-0.4631 0.91107,-0.4631 0.19476,0 0.67191,-0.4167 1.0604,-0.926 0.38846,-0.5093 0.81113,-0.926 0.93895,-0.926 z m -70.8706,0.7358 v 3.2459 3.2451 l 0.64182,-1.034 c 0.78521,-1.2655 0.74158,-3.2718 -0.0997,-4.6006 z m 87.57295,1.3022 c -0.27009,0 -0.69712,0.039 -1.37149,0.1112 -2.05695,0.2198 -2.50598,0.404 -3.45562,1.4195 -0.63439,0.6783 -0.66162,0.8506 -0.67593,4.192 -0.0132,3.0835 -0.0855,3.629 -0.62736,4.7464 -0.91228,1.8814 -1.59816,2.3095 -3.70054,2.3095 -3.03342,0 -3.55184,0.8721 -2.67994,4.5093 0.91517,3.8177 0.64921,5.334 -1.41025,8.032 -0.5279,0.6916 -0.96015,1.3673 -0.96015,1.5017 0,0.1345 0.23887,0.2445 0.5302,0.2445 0.66027,0 2.78241,-2.8067 3.16571,-4.1867 0.41159,-1.482 0.32182,-3.6595 -0.24651,-5.9743 -0.69363,-2.8255 -0.55025,-3.0681 1.81282,-3.0681 2.32159,0 3.28684,-0.6089 4.39042,-2.7679 0.76417,-1.4949 0.79899,-1.7073 0.801,-4.9283 0.002,-2.9279 0.0677,-3.4386 0.50281,-3.9191 0.57685,-0.6373 1.96847,-1.0832 3.3972,-1.0832 0.8596,0 0.99219,-0.084 0.99219,-0.613 0,-0.3739 -0.0144,-0.5173 -0.46456,-0.5255 z m -34.29249,0.3736 c -0.1843,0 -0.37647,0.03 -0.57412,0.08 -0.96697,0.2426 -1.25899,1.2509 -1.05576,3.6428 l 0.17261,2.0333 -1.04232,1.043 c -0.77608,0.776 -1.57459,1.2179 -3.12539,1.7301 -3.31968,1.0959 -6.36464,1.7515 -9.4387,2.0317 -1.57162,0.1434 -3.93327,0.5004 -5.24827,0.7933 -7.14362,1.5912 -8.3203,3.1787 -6.18204,8.3441 0.54239,1.3105 0.92604,2.6853 0.92604,3.3187 0,1.2684 -0.63328,2.739 -1.41592,3.2872 -0.52888,0.3707 -0.51006,0.3876 0.42579,0.3876 0.87477,0 1.03675,-0.1117 1.51413,-1.0475 0.83064,-1.6282 0.71316,-3.5332 -0.39171,-6.3608 -1.06363,-2.7221 -1.14051,-3.6243 -0.39066,-4.5776 0.94811,-1.2052 6.00985,-2.6302 10.58953,-2.9805 4.29127,-0.3286 10.35483,-1.9209 12.50518,-3.2846 1.94789,-1.2353 2.3663,-2.1063 2.18125,-4.5384 -0.17404,-2.2873 -0.038,-2.8752 0.66612,-2.8752 0.54639,0 1.0392,0.7393 1.0392,1.5587 0,0.2939 -0.55562,1.8195 -1.23507,3.3903 -1.52678,3.5298 -1.79666,5.6066 -0.87953,6.7691 0.32023,0.4062 1.37763,1.1388 2.34974,1.6283 2.02059,1.0176 3.78947,2.7834 4.5806,4.572 0.40534,0.9162 0.56954,2.0031 0.67643,4.4781 0.13081,3.0292 0.17976,3.2681 0.66352,3.2681 0.49798,0 0.51695,-0.1564 0.41601,-3.3962 -0.0991,-3.1806 -0.1596,-3.5049 -0.95499,-5.1205 -1.01814,-2.0682 -2.80741,-3.8261 -5.04362,-4.9548 -2.6425,-1.3341 -2.73886,-2.091 -0.83767,-6.6109 0.7276,-1.7299 1.32292,-3.5211 1.32292,-3.9801 0,-1.6129 -0.92311,-2.6588 -2.2133,-2.6295 z m 34.56483,2.7422 c -0.10758,0.02 -0.27506,0.1026 -0.53539,0.2381 -1.72281,0.8961 -2.56275,2.4723 -2.83805,5.3237 -0.44,4.5574 -1.36448,6.4082 -3.56621,7.1395 -0.78989,0.2625 -1.59928,0.7718 -2.01795,1.2692 -0.67586,0.8033 -0.69313,0.907 -0.51936,3.1284 0.2112,2.6998 -0.0819,4.0672 -1.22988,5.7357 l -0.79532,1.1554 0.74571,-0.086 c 0.49762,-0.058 0.94638,-0.3858 1.34977,-0.9864 0.93003,-1.3846 1.21163,-2.8175 1.05111,-5.3522 -0.17389,-2.7454 0.0427,-3.1737 1.92132,-3.7976 0.79897,-0.2654 1.62013,-0.7887 2.10426,-1.3401 0.98338,-1.12 1.79607,-3.6777 2.03089,-6.3924 0.21892,-2.531 0.61203,-3.5499 1.67328,-4.3346 0.50858,-0.376 0.81804,-0.8388 0.81804,-1.2232 0,-0.3688 -0.013,-0.5112 -0.19222,-0.4778 z m 0.2196,2.6514 -0.53742,0.6614 c -0.76293,0.9393 -1.00404,1.8608 -1.33792,5.1089 -0.32184,3.1308 -0.254,3.6033 0.70178,4.8791 1.15414,1.5407 1.55816,0.8396 0.6382,-1.1075 -0.48453,-1.0253 -0.49038,-1.2176 -0.11885,-4.118 0.21437,-1.6735 0.44932,-3.5785 0.52192,-4.2333 z m -40.25646,5.997 c -0.14298,0 -0.29652,0.018 -0.46508,0.039 -0.6831,0.084 -2.55006,0.649 -4.14859,1.2554 -2.73926,1.0388 -3.13489,1.1155 -6.87917,1.3338 -2.18501,0.1272 -4.4151,0.3693 -4.95575,0.5384 -2.32214,0.7258 -2.81535,2.5575 -1.67434,6.2172 0.71041,2.2783 0.82021,4.2963 0.29663,5.4549 -0.16235,0.3593 -0.0864,0.463 0.33901,0.463 1.3481,0 1.56382,-2.8744 0.47284,-6.2979 -0.86215,-2.7051 -0.87276,-3.3435 -0.0682,-4.1478 0.74247,-0.7427 1.35506,-0.857 5.58569,-1.0446 3.36609,-0.1492 4.22638,-0.3371 8.53747,-1.8664 1.49395,-0.5299 2.93926,-0.8927 3.2117,-0.8067 0.27242,0.086 0.80825,0.6305 1.19113,1.2092 0.76475,1.1557 2.42152,2.4815 3.86075,3.0898 1.53138,0.6471 2.61789,1.6234 3.29747,2.9646 0.74009,1.4605 1.30183,4.3035 1.15496,5.8436 -0.0923,0.9678 -0.047,1.0562 0.53795,1.0562 h 0.63823 l -0.13695,-2.4474 c -0.25035,-4.4706 -1.46052,-6.5156 -4.97387,-8.4066 -1.29374,-0.6964 -2.45941,-1.5444 -2.8696,-2.0873 -1.46989,-1.9455 -1.9514,-2.391 -2.95227,-2.3606 z m -1.69238,2.9374 c -2.05896,0.084 -5.17385,1.7015 -5.17385,3.0178 0,0.2043 0.48565,0.8729 1.0795,1.4857 0.59389,0.6128 1.24466,1.4274 1.44592,1.8103 0.20127,0.3828 0.75298,1.0218 1.22629,1.42 0.76269,0.6416 1.01172,0.7075 2.1921,0.5757 0.7325,-0.082 2.28317,-0.5469 3.44578,-1.0334 2.40956,-1.0086 2.95558,-1.7423 2.17921,-2.9271 -0.42566,-0.6496 -4.00772,-3.5074 -5.18935,-4.1397 -0.31139,-0.1667 -0.73046,-0.2286 -1.2056,-0.2093 z m -33.16285,0.061 c -1.34437,0 -1.71627,0.1066 -2.30994,0.6615 -1.24553,1.1641 -1.52728,2.032 -1.54408,4.7577 -0.0208,3.3845 0.50813,4.4111 2.67012,5.1826 v 0 c 1.29889,0.4678 2.01451,0.4667 3.05355,0 1.65622,-0.7443 3.1006,-2.4644 3.1006,-3.6928 0,-0.4559 -0.29514,-1.2629 -0.65526,-1.7928 -0.3601,-0.53 -0.76727,-1.4645 -0.90485,-2.0767 -0.13759,-0.6126 -0.6001,-1.5457 -1.02836,-2.0744 -0.7402,-0.9131 -0.85833,-0.9612 -2.38178,-0.9612 z m -0.0785,0.9358 c 0.5302,-0.023 1.03539,0.1863 1.47796,0.6289 0.35126,0.3514 0.7062,0.9764 0.78909,1.3891 0.0829,0.4128 0.50454,1.4266 0.93689,2.2532 0.43236,0.8263 0.786,1.674 0.786,1.8841 0,0.2098 -0.53282,0.8731 -1.18441,1.4737 -1.05672,0.9742 -1.32699,1.0925 -2.49909,1.0925 -1.00764,0 -1.48696,-0.149 -2.05619,-0.6387 -0.73096,-0.6289 -0.7426,-0.6837 -0.7426,-3.5936 v -2.9549 l 0.86455,-0.772 c 0.54266,-0.485 1.09763,-0.7395 1.6278,-0.7623 z m 33.35922,0.01 c 0.40571,-0.016 4.64706,3.0443 5.28598,3.8143 0.47032,0.5665 0.26746,0.7157 -2.30116,1.6928 -3.24213,1.2332 -3.609,1.1507 -5.02656,-1.1332 -0.36944,-0.5953 -0.98412,-1.3423 -1.3658,-1.66 -0.56814,-0.4728 -0.64096,-0.6647 -0.4036,-1.0584 0.27464,-0.4553 2.95974,-1.6216 3.81114,-1.6555 z m -0.0496,1.0949 c -0.12811,0.012 -0.26114,0.047 -0.41444,0.1008 -1.12308,0.3934 -1.15502,2.1968 -0.0584,3.2933 0.67017,0.6702 2.12014,0.6802 2.93471,0.021 0.53004,-0.4295 0.58168,-0.6088 0.35758,-1.246 -0.14401,-0.4095 -0.76687,-1.0998 -1.3844,-1.5337 -0.71065,-0.4996 -1.05072,-0.671 -1.43505,-0.6353 z m 38.8865,0.4879 c -0.61508,-0.01 -1.36737,0.2807 -2.22983,0.875 -2.02753,1.3967 -2.31875,2.1132 -2.35386,5.7835 h -5.3e-4 c -0.0265,2.7784 0.0195,3.1202 0.42222,3.1202 0.61799,0 0.77113,-0.7488 0.77512,-3.8007 l 0.004,-2.6101 0.93329,-0.8549 c 1.94323,-1.7799 3.03546,-1.8944 3.03546,-0.3188 0,0.508 -0.23747,1.2009 -0.54674,1.5941 -0.87606,1.1139 -1.06317,2.1807 -0.73226,4.1844 0.26411,1.5991 0.36573,1.806 0.88575,1.806 0.5485,0 0.57269,-0.074 0.36949,-1.1245 -0.38719,-2.0015 -0.2689,-2.9792 0.55602,-4.5929 0.71009,-1.3893 0.76658,-1.6663 0.51781,-2.5476 -0.2804,-0.9935 -0.84476,-1.5015 -1.63557,-1.5137 z m -72.31237,0.3757 c -0.085,0 -0.16076,0.01 -0.22376,0.033 -0.92623,0.3553 -1.31085,3.7258 -0.54933,4.813 0.26387,0.3768 0.68633,0.5882 1.17565,0.5882 1.05789,0 1.5875,-0.8509 1.5875,-2.5509 0,-0.7559 -0.0744,-1.5674 -0.16486,-1.8029 -0.18833,-0.4908 -1.23005,-1.0723 -1.8252,-1.0805 z m 33.36798,0.1426 c 0.39134,0 1.69447,1.1332 1.69447,1.4732 0,0.5744 -1.25587,0.468 -1.57768,-0.1333 -0.29919,-0.5591 -0.36748,-1.3399 -0.11679,-1.3399 z m -11.82823,0 c -0.83354,0 -1.47457,0.177 -1.82313,0.5255 -0.60405,0.604 -0.64585,1.3075 -0.24133,4.0272 0.25583,1.7198 0.22945,2.0846 -0.23926,3.3181 l -0.52658,1.3854 h 0.61392 c 0.48651,0 0.71114,-0.2545 1.08106,-1.2232 0.42161,-1.1041 0.43484,-1.4801 0.13591,-3.8751 -0.39047,-3.1287 -0.34607,-3.2017 1.82211,-2.9802 2.32127,0.237 4.58179,1.4946 6.02393,3.3517 2.15982,2.7808 3.98341,3.4279 7.70236,2.731 3.35272,-0.6283 6.19474,-0.036 6.54638,1.3653 0.17306,0.6898 1.15858,0.899 1.15858,0.246 0,-0.8321 -0.63376,-1.6935 -1.6769,-2.2799 -1.21762,-0.6844 -3.4375,-0.8014 -7.47035,-0.3934 -2.68568,0.272 -3.59911,-0.1045 -5.15938,-2.127 -1.44833,-1.8772 -2.90227,-2.9181 -4.96816,-3.5563 -1.11919,-0.3455 -2.14559,-0.5169 -2.97916,-0.5151 z m -21.27154,1.125 c 0.50345,0 0.89003,1.6769 0.50279,2.6861 h -5.1e-4 c -0.17047,0.4442 -0.43167,0.5315 -0.72141,0.2418 -0.22794,-0.2281 -0.22992,-2.5921 -0.002,-2.8199 0.0748,-0.075 0.14925,-0.1085 0.22119,-0.108 z m 23.66417,1.7854 c -1.80626,0.01 -2.21414,0.838 -1.96421,3.9955 0.16851,2.1294 0.23677,2.3508 0.72604,2.3508 0.51559,0 0.53234,-0.1037 0.36483,-2.2831 -0.2672,-3.4761 0.42929,-3.9015 2.60089,-1.5891 2.20416,2.3474 4.30291,3.9161 5.11235,3.8222 0.6748,-0.079 0.63836,-0.1386 -0.85576,-1.4052 -0.85837,-0.7276 -2.35152,-2.1264 -3.31814,-3.1088 -1.49715,-1.5214 -1.8922,-1.7823 -2.666,-1.7823 z" />
  </g>
</svg>
