<?xml version="1.0" encoding="UTF-8" standalone="no"?>
<!-- Created with Inkscape (http://www.inkscape.org/) -->

<svg
   version="1.1"
   id="svg6551"
   width="507.38577"
   height="151.36694"
   xmlns:inkscape="http://www.inkscape.org/namespaces/inkscape"
   xmlns:sodipodi="http://sodipodi.sourceforge.net/DTD/sodipodi-0.dtd"
   xmlns="http://www.w3.org/2000/svg"
   xmlns:svg="http://www.w3.org/2000/svg">
  <defs
     id="defs6555" />
  <sodipodi:namedview
     id="namedview6553"
     pagecolor="#ffffff"
     bordercolor="#666666"
     borderopacity="1.0"
     inkscape:pageshadow="2"
     inkscape:pageopacity="0.0"
     inkscape:pagecheckerboard="0" />
  <inkscape:clipboard
     style="font-variation-settings:normal;opacity:1;vector-effect:none;fill:#000000;fill-opacity:1;stroke-width:5.03247873;stroke-linecap:butt;stroke-linejoin:miter;stroke-miterlimit:4;stroke-dasharray:none;stroke-dashoffset:0;stroke-opacity:1;-inkscape-stroke:none;stop-color:#000000;stop-opacity:1"
     min="-1620.1492,886.11422"
     max="-1112.7635,1037.4812"
     geom-min="-1620.1492,886.11422"
     geom-max="-1112.7635,1037.4812" />
  <g
     id="g6557"
     transform="matrix(3.7795275,0,0,3.7795275,1620.1492,-886.11421)">
    <g
       aria-label="SUDOER"
       id="text41861"
       style="font-size:53.2602px;stroke-width:1.33151"
       transform="translate(-219.86049,39.410795)">
      <path
         d="m -206.77247,211.05993 q 0,2.39255 2.1845,2.39255 h 5.51326 q 1.97646,0 1.97646,2.49657 v 13.21102 1.66438 q 0,1.66439 -0.80619,2.91267 -0.78018,1.24829 -2.6266,1.35231 h -5.51326 q -1.14427,-0.10402 -1.97646,-1.3003 -0.83219,-1.19627 -0.78018,-2.6526 v -8.73801 h 1.82042 v 7.33368 q 0,1.7164 0.4161,2.6006 0.41609,0.8842 1.92444,0.8842 h 2.54858 q 1.53435,0 2.26252,-0.93621 0.72817,-0.93622 0.72817,-2.49657 l -0.078,-11.7547 q 0.078,-2.44456 -2.1845,-2.49657 h -4.68107 q -2.70462,0 -2.70462,-3.53681 v -11.02652 -1.66439 q 0,-1.66438 0.78017,-2.91266 0.80619,-1.24829 2.65261,-1.35231 h 5.51327 q 1.45633,0.10402 2.13248,1.3003 0.67616,1.19627 0.62415,2.6526 v 8.738 h -1.82042 v -7.33368 q 0,-1.71639 -0.4161,-2.60059 -0.41609,-0.8842 -1.92444,-0.8842 h -3.58882 q -0.93621,0 -1.45633,0.93621 -0.49412,0.93622 -0.49412,2.49657 l -0.026,9.05008 z"
         style="-inkscape-font-specification:'Alien League, Normal'"
         id="path41863" />
      <path
         d="m -184.56338,230.72043 q 0,1.76841 0.83219,3.01669 0.83219,1.24829 2.91266,1.35231 h 2.28853 2.05447 q 2.08048,-0.10402 2.91267,-1.35231 0.83219,-1.24828 0.83219,-3.01669 v -1.56036 -29.43874 -4.57705 h -2.08048 v 4.99315 13.39306 2.05447 14.19926 q 0,1.56035 -0.72817,2.49657 -0.72816,0.93621 -2.36654,0.93621 h -1.35231 q -1.7684,0 -2.49657,-0.93621 -0.72817,-0.93622 -0.72817,-2.49657 v -14.19926 -2.05447 -13.39306 -4.99315 h -2.08047 v 4.57705 29.43874 z"
         style="-inkscape-font-specification:'Alien League, Normal'"
         id="path41865" />
      <path
         d="m -160.32583,235.08943 v -39.78911 h 4.91512 q 1.69039,0 2.54859,0.52012 1.24828,0.80618 2.10648,2.88666 1.14426,2.6266 1.69039,6.78755 0.54612,4.13495 0.54612,9.44016 0,4.55105 -0.36408,8.06185 -0.36408,3.4848 -0.98823,5.77332 -0.59813,2.26252 -1.30029,3.58883 -0.67616,1.3263 -1.69039,2.02846 -1.01423,0.70216 -2.31453,0.70216 z m 1.82042,-1.63837 h 2.99068 q 1.06625,-0.4421 1.79441,-1.2743 0.72817,-0.83219 1.61237,-3.74485 0.8842,-2.91267 1.09225,-5.56528 0.20805,-2.65261 0.52012,-7.98383 -0.20805,-7.67175 -0.98823,-11.52064 -0.78017,-3.84888 -1.56035,-5.38323 -0.98823,-0.8582 -2.52258,-0.8842 h -2.93867 z"
         style="-inkscape-font-specification:'Alien League, Normal'"
         id="path41867" />
      <path
         d="m -133.87777,214.59674 v -3.53681 -1.66438 l 0.026,-9.05008 q 0,-1.56035 0.49412,-2.49657 0.52012,-0.93621 1.45633,-0.93621 h 3.58882 q 1.50835,0 1.92444,0.8842 0.4161,0.8842 0.4161,2.60059 v 7.33368 6.65753 8.00983 7.3857 q -0.10402,1.66438 -0.52012,2.54858 -0.4161,0.8842 -1.92444,0.8842 h -2.54858 q -1.87243,0 -2.39255,-0.93621 -0.52012,-0.93622 -0.52012,-2.6006 v -11.65067 z m 9.72623,-6.86558 v -8.738 q 0.052,-1.45633 -0.62415,-2.6526 -0.67615,-1.19628 -2.54858,-1.3003 h -5.09717 q -1.84642,0.10402 -2.65261,1.35231 -0.78017,1.24828 -0.78017,2.91266 v 1.66439 28.19045 1.66438 q 0,1.56036 0.72816,2.86066 0.75417,1.3003 2.6006,1.40432 h 4.47302 q 1.66438,-0.10402 2.75663,-1.3003 1.09225,-1.19627 1.09225,-2.96468 z"
         style="-inkscape-font-specification:'Alien League, Normal'"
         id="path41869" />
      <path
         d="m -111.61667,235.08943 v -39.89314 h 11.41661 l -0.026,1.82042 h -9.36215 v 16.51378 h 8.63398 v 2.05447 h -8.63398 v 17.52802 h 9.67422 l 0.07802,1.97645 z"
         style="-inkscape-font-specification:'Alien League, Normal'"
         id="path41871" />
      <path
         d="m -87.35311,235.08943 v -40.02317 h 6.423471 q 1.950447,0 2.938673,1.09225 1.014232,1.06625 1.61237,3.79687 0.624142,2.73063 0.624142,6.03339 0,4.26497 -1.014232,7.17764 -0.988226,2.91267 -3.068703,3.69285 0.754173,1.01423 1.144262,2.00245 0.832191,2.13249 1.586364,5.30522 l 2.548584,10.9225 h -2.418555 l -1.92444,-8.34791 q -0.858197,-3.61483 -1.404322,-5.51326 -0.546125,-1.92444 -0.988226,-2.67862 -0.416096,-0.75417 -0.858197,-1.06624 -0.312071,-0.18204 -1.066244,-0.18204 h -2.236513 v 17.78807 z m 1.92444,-19.34843 h 3.562817 q 1.768405,-0.31207 2.44456,-1.50835 0.676154,-1.19627 1.144262,-3.27675 0.468107,-2.08047 0.624143,-5.12317 0,-4.18696 -0.754173,-6.70954 -0.754173,-2.52258 -3.66684,-2.83465 h -3.354769 z"
         style="-inkscape-font-specification:'Alien League, Normal'"
         id="path41873" />
    </g>
  </g>
</svg>
